<?xml version="1.0" encoding="utf-8"?>
<!-- Generator: Adobe Illustrator 16.0.3, SVG Export Plug-In . SVG Version: 6.00 Build 0)  -->
<!DOCTYPE svg PUBLIC "-//W3C//DTD SVG 1.1//EN" "http://www.w3.org/Graphics/SVG/1.1/DTD/svg11.dtd">
<svg version="1.1" id="Layer_1" xmlns="http://www.w3.org/2000/svg" xmlns:xlink="http://www.w3.org/1999/xlink" x="0px" y="0px"
	 width="149.412px" height="149.842px" viewBox="100.325 137.988 149.412 117.842"
	 enable-background="new 100.325 137.988 149.412 117.842" xml:space="preserve">
<g>
	<path fill="#A6673A" d="M109.175,204.633l9.487-56.996c0.654-3.929,4.382-6.593,8.31-5.938L176.845,150
		c3.929,0.654,6.593,4.381,5.939,8.312l-9.488,56.995L109.175,204.633z"/>
	<path fill="#99522E" d="M177.438,146.438l-49.873-8.301c-5.893-0.981-11.485,3.015-12.466,8.908l-9.488,56.996
		c-0.328,1.968,1.003,3.829,2.97,4.156l64.122,10.674c1.965,0.327,3.828-1.003,4.156-2.971l9.486-56.996
		C187.327,153.01,183.332,147.418,177.438,146.438z M119.26,166.042l14.25,2.372l-2.372,14.25l-14.249-2.372L119.26,166.042
		L119.26,166.042z M140.635,169.6l14.249,2.372l-2.372,14.25l-14.25-2.372L140.635,169.6z M151.325,193.346l-2.373,14.249
		l-14.248-2.371l2.372-14.249L151.325,193.346z M141.82,162.475l2.372-14.25l14.248,2.372l-2.371,14.25L141.82,162.475
		L141.82,162.475z M162.008,173.158l14.249,2.372l-2.372,14.249l-14.249-2.371L162.008,173.158z M179.221,157.718l-1.779,10.687
		l-14.249-2.373l2.371-14.25l10.687,1.779C178.217,153.888,179.548,155.753,179.221,157.718z M126.38,145.26l10.687,1.779
		l-2.372,14.25l-14.249-2.372l1.778-10.687C122.551,146.266,124.416,144.933,126.38,145.26z M115.702,187.416l14.25,2.372
		l-2.372,14.249l-14.249-2.37L115.702,187.416L115.702,187.416z M156.079,208.781l2.371-14.249l14.249,2.371l-2.373,14.25
		L156.079,208.781z"/>
	<path fill="#E6563A" d="M152.517,208.188c-0.945-0.157-1.914,0.066-2.695,0.624l-19.058,13.619
		c-1.613,1.154-3.879,0.777-5.033-0.838l-13.619-19.058c-0.565-0.793-1.422-1.274-2.346-1.429l0.001-0.033l-3.562-0.594
		l-0.593,3.563l-0.988,5.936l-4.15,24.937c-0.983,5.901,3.005,11.482,8.907,12.465l49.873,8.301
		c5.902,0.983,11.483-3.006,12.466-8.908l5.732-34.435L152.517,208.188z"/>

		<rect x="105.122" y="206.359" transform="matrix(-0.9864 -0.1642 0.1642 -0.9864 246.0776 440.2831)" fill="#FFD9B3" width="72.227" height="7.223"/>
	<path fill="#FFEFD9" d="M166.152,210.457l-59.946-9.979l18.688,26.151c1.737,2.43,4.297,3.926,7.034,4.382
		c2.737,0.456,5.645-0.131,8.074-1.866L166.152,210.457z"/>
</g>
<g>
	<path fill="#FEC000" d="M184.751,246.082l-13.332-47.657l-0.788-2.821l-0.844-3.015l-2.522-9.014l-0.843-3.014l-0.792-2.826
		l-4.159-14.868l17.551-4.911l0.747,2.662c0.284,1.014,0.944,1.854,1.86,2.372c0.917,0.517,1.98,0.643,2.993,0.36
		c2.093-0.584,3.317-2.763,2.733-4.855l-0.744-2.662l14.962-4.185l31.526,32.861l1.946,2.031l2,2.084l5.663,5.901l1.999,2.087
		l1.953,2.034l3.044,3.173l0.03,1.066c0.006,0.27,0.148,6.693-3.043,13.885c-2.767,6.233-8.593,14.17-20.769,17.833
		c-0.875,0.264-1.785,0.506-2.728,0.723L184.751,246.082z"/>
	<g>
		<path fill="#FFA81F" d="M225.923,234.604l-10.357-35.283l-5.834-19.876l-8.158-27.797l31.526,32.861l1.946,2.031l2,2.084
			l5.663,5.901l1.999,2.087l1.953,2.034l3.044,3.173l0.03,1.066c0.006,0.27,0.148,6.693-3.043,13.885
			C243.925,223.004,238.099,230.941,225.923,234.604z"/>
		<path fill="#FFA81F" d="M212.185,200.932c5.814-1.625,9.224-7.681,7.596-13.497c-1.627-5.816-7.682-9.224-13.496-7.597
			c-2.82,0.788-5.161,2.625-6.596,5.176c-0.952,1.69-1.429,3.56-1.412,5.451c0.008,0.959,0.145,1.921,0.41,2.87
			c0.788,2.816,2.627,5.158,5.174,6.592C206.411,201.366,209.368,201.72,212.185,200.932z"/>
	</g>
	<g>
		<path fill="#FFCF00" d="M215.566,199.321l-5.834-19.876c4.591,0.211,8.746,3.326,10.05,7.99
			C221.061,192.004,219.23,196.723,215.566,199.321z"/>
		<path fill="#FFCF00" d="M241.374,202.27c0.284-0.08,0.565-0.17,0.839-0.274c0.907-0.343,1.748-0.808,2.504-1.382
			c0.735-0.56,1.388-1.22,1.942-1.967l-1.953-2.036l-1.999-2.085l-5.663-5.901l-2-2.084l-1.946-2.031
			c-0.773,0.528-1.459,1.16-2.038,1.87c-0.612,0.741-1.112,1.562-1.487,2.441c-0.533,1.249-0.815,2.609-0.803,3.997
			c0.008,0.85,0.124,1.711,0.364,2.563C230.611,200.655,236.101,203.745,241.374,202.27z"/>
	</g>
	<g>
		<path fill="#FFA81F" d="M206.401,218.543c-0.045-5.138-4.263-9.278-9.4-9.232c-5.137,0.046-9.279,4.261-9.233,9.399
			c0.046,5.136,4.263,9.277,9.4,9.232C202.305,227.896,206.448,223.679,206.401,218.543z"/>
		<path fill="#FFA81F" d="M174.207,198.134c0.913-0.213,1.786-0.54,2.6-0.963c3.629-1.888,6.096-5.701,6.058-10.062
			c-0.055-6.187-5.132-11.174-11.318-11.119c-0.221,0.002-0.441,0.01-0.657,0.026c-0.937,0.063-1.85,0.239-2.724,0.523
			c-0.893,0.291-1.744,0.692-2.536,1.195l0.792,2.826l0.843,3.014l2.522,9.014l0.844,3.016l0.788,2.821
			c0.109,0.002,0.219,0.004,0.33,0.003C172.594,198.42,173.416,198.319,174.207,198.134z"/>
	</g>
</g>
</svg>
