<?xml version="1.0" encoding="iso-8859-1"?>
<!-- Generator: Adobe Illustrator 19.0.0, SVG Export Plug-In . SVG Version: 6.00 Build 0)  -->
<svg version="1.1" id="Layer_1" xmlns="http://www.w3.org/2000/svg" xmlns:xlink="http://www.w3.org/1999/xlink" x="0px" y="0px"
     viewBox="0 0 512 512" style="enable-background:new 0 0 512 512;" xml:space="preserve">
<polygon style="fill:#F7B239;" points="255.999,36.208 276.681,78.113 322.924,84.833 289.462,117.45 297.361,163.507
    255.999,141.762 214.637,163.507 222.537,117.45 189.075,84.833 235.319,78.113 "/>
<polygon style="fill:#2BA5F7;" points="38.287,157.296 75.458,185.615 119.859,171.049 104.412,215.151 131.987,252.878
    85.269,251.817 57.911,289.699 44.483,244.94 0,230.627 38.419,204.026 "/>
<g>
    <polygon style="fill:#F24C8F;" points="473.713,157.296 436.542,185.615 392.141,171.049 407.587,215.151 380.012,252.878
        426.731,251.817 454.089,289.699 467.517,244.94 512,230.627 473.58,204.026   "/>
    <path style="fill:#F24C8F;" d="M379.814,33.802c-3.52,0-6.372-2.853-6.372-6.372v-9.055c0-3.52,2.853-6.372,6.372-6.372
        c3.52,0,6.372,2.853,6.372,6.372v9.055C386.187,30.948,383.334,33.802,379.814,33.802z"/>
    <path style="fill:#F24C8F;" d="M379.814,80.109c-3.52,0-6.372-2.853-6.372-6.372v-9.055c0-3.52,2.853-6.372,6.372-6.372
        c3.52,0,6.372,2.853,6.372,6.372v9.055C386.187,77.256,383.334,80.109,379.814,80.109z"/>
    <path style="fill:#F24C8F;" d="M407.495,52.428h-9.055c-3.52,0-6.372-2.853-6.372-6.372c0-3.52,2.853-6.372,6.372-6.372h9.055
        c3.52,0,6.372,2.853,6.372,6.372C413.867,49.575,411.015,52.428,407.495,52.428z"/>
    <path style="fill:#F24C8F;" d="M361.188,52.428h-9.055c-3.52,0-6.372-2.853-6.372-6.372c0-3.52,2.853-6.372,6.372-6.372h9.055
        c3.52,0,6.372,2.853,6.372,6.372C367.56,49.575,364.708,52.428,361.188,52.428z"/>
</g>
<g>
    <path style="fill:#2BA5F7;" d="M100.62,75.224c-3.52,0-6.372-2.853-6.372-6.372v-9.055c0-3.52,2.853-6.372,6.372-6.372
        s6.372,2.853,6.372,6.372v9.054C106.993,72.37,104.139,75.224,100.62,75.224z"/>
    <path style="fill:#2BA5F7;" d="M100.62,121.531c-3.52,0-6.372-2.853-6.372-6.372v-9.054c0-3.52,2.853-6.372,6.372-6.372
        s6.372,2.853,6.372,6.372v9.054C106.993,118.679,104.139,121.531,100.62,121.531z"/>
    <path style="fill:#2BA5F7;" d="M128.301,93.85h-9.054c-3.52,0-6.372-2.853-6.372-6.372s2.853-6.372,6.372-6.372h9.054
        c3.52,0,6.372,2.853,6.372,6.372S131.82,93.85,128.301,93.85z"/>
    <path style="fill:#2BA5F7;" d="M81.993,93.85h-9.054c-3.52,0-6.372-2.853-6.372-6.372s2.853-6.372,6.372-6.372h9.054
        c3.52,0,6.372,2.853,6.372,6.372S85.513,93.85,81.993,93.85z"/>
</g>
<path style="fill:#F7B239;" d="M286.824,499.998c-0.219,0-0.44-0.012-0.663-0.035c-3.5-0.362-6.046-3.493-5.683-6.993
    c6.795-65.752,38.572-115.846,64.032-146.29c27.553-32.948,53.232-50.214,54.311-50.933c2.929-1.948,6.886-1.157,8.836,1.773
    c1.95,2.928,1.159,6.882-1.769,8.833l0,0c-0.251,0.169-25.478,17.177-51.873,48.828c-24.205,29.026-54.413,76.721-60.859,139.099
    C292.815,497.558,290.048,499.997,286.824,499.998z"/>
<path style="fill:#CC1B5B;" d="M225.176,499.998c-3.224,0-5.991-2.44-6.331-5.718c-6.447-62.378-36.654-110.073-60.859-139.099
    c-26.395-31.651-51.622-48.66-51.873-48.828c-2.926-1.953-3.717-5.909-1.765-8.836c1.952-2.928,5.903-3.718,8.832-1.77
    c1.08,0.72,26.759,17.985,54.311,50.933c25.46,30.444,57.235,80.538,64.032,146.29c0.363,3.5-2.183,6.632-5.683,6.993
    C225.616,499.986,225.395,499.998,225.176,499.998z"/>
<g>
    <path style="fill:#2BA5F7;" d="M255.999,446.076c-3.52,0-6.372-2.853-6.372-6.372V213.75c0-3.52,2.853-6.372,6.372-6.372
        s6.372,2.853,6.372,6.372v225.954C262.372,443.223,259.519,446.076,255.999,446.076z"/>
    <circle style="fill:#2BA5F7;" cx="455.724" cy="114.646" r="6.372"/>
</g>
<circle style="fill:#F24C8F;" cx="313.931" cy="295.381" r="6.372"/>
<circle style="fill:#F7B239;" cx="193.433" cy="232.282" r="6.372"/>
<g>
</g>
<g>
</g>
<g>
</g>
<g>
</g>
<g>
</g>
<g>
</g>
<g>
</g>
<g>
</g>
<g>
</g>
<g>
</g>
<g>
</g>
<g>
</g>
<g>
</g>
<g>
</g>
<g>
</g>
</svg>
