<?xml version="1.0" encoding="iso-8859-1"?>
<!-- Generator: Adobe Illustrator 19.0.0, SVG Export Plug-In . SVG Version: 6.00 Build 0)  -->
<svg version="1.1" id="Layer_1" xmlns="http://www.w3.org/2000/svg" xmlns:xlink="http://www.w3.org/1999/xlink" x="0px" y="0px"
	 viewBox="0 0 505 505" style="enable-background:new 0 0 505 505;" xml:space="preserve">
<circle style="fill:#FFD05B;" cx="252.5" cy="252.5" r="252.5"/>
<path style="fill:#FFFFFF;" d="M377.5,193.3h-3.1c0.1-1.4,0.2-2.9,0.2-4.3c0-38.5-31.2-69.7-69.7-69.7c-15.1,0-29.1,4.9-40.5,13.1
	c-14.3-28.9-44.1-48.9-78.5-48.9c-48.4,0-87.7,39.2-87.7,87.7c0,9.7,1.7,19.1,4.6,27.9c-19.7,9.3-33.4,29.3-33.4,52.6l0,0
	c0,32.2,26.1,58.2,58.2,58.2h249.9c32.2,0,58.2-26.1,58.2-58.2l0,0C435.7,219.4,409.6,193.3,377.5,193.3z"/>
<rect x="171.9" y="274.3" style="fill:#2B3B4E;" width="161.1" height="113.4"/>
<g>
	<path style="fill:#324A5E;" d="M340.7,242.2H164.3c-3,0-5.4,2.4-5.4,5.4v42.5c0,3,2.4,5.4,5.4,5.4h176.3c3,0,5.4-2.4,5.4-5.4v-42.5
		C346.1,244.7,343.7,242.2,340.7,242.2z"/>
	<path style="fill:#324A5E;" d="M340.7,305.2H164.3c-3,0-5.4,2.4-5.4,5.4v42.5c0,3,2.4,5.4,5.4,5.4h176.3c3,0,5.4-2.4,5.4-5.4v-42.5
		C346.1,307.7,343.7,305.2,340.7,305.2z"/>
	<path style="fill:#324A5E;" d="M340.7,368.2H164.3c-3,0-5.4,2.4-5.4,5.4v42.5c0,3,2.4,5.4,5.4,5.4h176.3c3,0,5.4-2.4,5.4-5.4v-42.5
		C346.1,370.6,343.7,368.2,340.7,368.2z"/>
</g>
<g>
	<circle style="fill:#FFD05B;" cx="314" cy="267.1" r="6.7"/>
	<circle style="fill:#FFD05B;" cx="314" cy="331.9" r="6.7"/>
	<circle style="fill:#FFD05B;" cx="314" cy="396.7" r="6.7"/>
</g>
<g>
	<path style="fill:#ACB3BA;" d="M178.2,319.1c-1.8,0-3.2,1.4-3.2,3.2v19.2c0,1.8,1.4,3.2,3.2,3.2s3.2-1.4,3.2-3.2v-19.2
		C181.4,320.6,180,319.1,178.2,319.1z"/>
	<path style="fill:#ACB3BA;" d="M192.6,319.1c-1.8,0-3.2,1.4-3.2,3.2v19.2c0,1.8,1.4,3.2,3.2,3.2s3.2-1.4,3.2-3.2v-19.2
		C195.8,320.6,194.3,319.1,192.6,319.1z"/>
	<path style="fill:#ACB3BA;" d="M206.9,319.1c-1.8,0-3.2,1.4-3.2,3.2v19.2c0,1.8,1.4,3.2,3.2,3.2s3.2-1.4,3.2-3.2v-19.2
		C210.1,320.6,208.7,319.1,206.9,319.1z"/>
	<path style="fill:#ACB3BA;" d="M221.3,319.1c-1.8,0-3.2,1.4-3.2,3.2v19.2c0,1.8,1.4,3.2,3.2,3.2s3.2-1.4,3.2-3.2v-19.2
		C224.5,320.6,223,319.1,221.3,319.1z"/>
	<path style="fill:#ACB3BA;" d="M178.2,256.2c-1.8,0-3.2,1.4-3.2,3.2v19.2c0,1.8,1.4,3.2,3.2,3.2s3.2-1.4,3.2-3.2v-19.2
		C181.4,257.6,180,256.2,178.2,256.2z"/>
	<path style="fill:#ACB3BA;" d="M192.6,256.2c-1.8,0-3.2,1.4-3.2,3.2v19.2c0,1.8,1.4,3.2,3.2,3.2s3.2-1.4,3.2-3.2v-19.2
		C195.8,257.6,194.3,256.2,192.6,256.2z"/>
	<path style="fill:#ACB3BA;" d="M206.9,256.2c-1.8,0-3.2,1.4-3.2,3.2v19.2c0,1.8,1.4,3.2,3.2,3.2s3.2-1.4,3.2-3.2v-19.2
		C210.1,257.6,208.7,256.2,206.9,256.2z"/>
	<path style="fill:#ACB3BA;" d="M221.3,256.2c-1.8,0-3.2,1.4-3.2,3.2v19.2c0,1.8,1.4,3.2,3.2,3.2s3.2-1.4,3.2-3.2v-19.2
		C224.5,257.6,223,256.2,221.3,256.2z"/>
	<path style="fill:#ACB3BA;" d="M178.2,382.1c-1.8,0-3.2,1.4-3.2,3.2v19.2c0,1.8,1.4,3.2,3.2,3.2s3.2-1.4,3.2-3.2v-19.2
		C181.4,383.5,180,382.1,178.2,382.1z"/>
	<path style="fill:#ACB3BA;" d="M192.6,382.1c-1.8,0-3.2,1.4-3.2,3.2v19.2c0,1.8,1.4,3.2,3.2,3.2s3.2-1.4,3.2-3.2v-19.2
		C195.8,383.5,194.3,382.1,192.6,382.1z"/>
	<path style="fill:#ACB3BA;" d="M206.9,382.1c-1.8,0-3.2,1.4-3.2,3.2v19.2c0,1.8,1.4,3.2,3.2,3.2s3.2-1.4,3.2-3.2v-19.2
		C210.1,383.5,208.7,382.1,206.9,382.1z"/>
	<path style="fill:#ACB3BA;" d="M221.3,382.1c-1.8,0-3.2,1.4-3.2,3.2v19.2c0,1.8,1.4,3.2,3.2,3.2s3.2-1.4,3.2-3.2v-19.2
		C224.5,383.5,223,382.1,221.3,382.1z"/>
</g>
<g>
</g>
<g>
</g>
<g>
</g>
<g>
</g>
<g>
</g>
<g>
</g>
<g>
</g>
<g>
</g>
<g>
</g>
<g>
</g>
<g>
</g>
<g>
</g>
<g>
</g>
<g>
</g>
<g>
</g>
</svg>
