<svg xmlns="http://www.w3.org/2000/svg" width="300" height="300" fill="none"><g clip-path="url(#C)"><path d="M-1 0H299V300L-1 0Z" fill="url(#A)"/><path d="M155.667 157.5h145v80.833H236.5L155.667 157.5z" fill="#ff7800"/><g fill="#fff"><path d="M102.375 86l6.825-15.675 1.325 2.1h-8.875l2.025-2.275v4.975H99.45V68.5h14.5v3.1L107.775 86h-5.4zm20.382.35c-1.5 0-2.833-.358-4-1.075-1.15-.717-2.058-1.75-2.725-3.1s-1-2.992-1-4.925.334-3.575 1-4.925 1.575-2.383 2.725-3.1c1.167-.717 2.5-1.075 4-1.075 1.484 0 2.8.358 3.95 1.075 1.167.717 2.084 1.75 2.75 3.1s1 2.992 1 4.925-.333 3.575-1 4.925-1.583 2.383-2.75 3.1c-1.15.717-2.466 1.075-3.95 1.075zm0-4.05a2.12 2.12 0 0 0 1.4-.5c.417-.333.742-.867.975-1.6.234-.75.35-1.733.35-2.95 0-1.233-.116-2.217-.35-2.95s-.558-1.267-.975-1.6a2.12 2.12 0 0 0-1.4-.5 2.22 2.22 0 0 0-1.425.5c-.4.333-.725.867-.975 1.6-.233.733-.35 1.717-.35 2.95 0 1.217.117 2.2.35 2.95.25.733.575 1.267.975 1.6a2.22 2.22 0 0 0 1.425.5zm11.965 3.7l11.95-17.5h3.6L138.322 86h-3.6zm1.6-8.025c-.85 0-1.617-.192-2.3-.575s-1.217-.933-1.6-1.65c-.384-.733-.575-1.608-.575-2.625s.191-1.883.575-2.6.916-1.267 1.6-1.65c.683-.4 1.45-.6 2.3-.6.866 0 1.633.2 2.3.6a4.02 4.02 0 0 1 1.6 1.65c.4.717.6 1.583.6 2.6 0 1-.2 1.867-.6 2.6a3.99 3.99 0 0 1-1.6 1.675c-.667.383-1.434.575-2.3.575zm.025-2.375c.416 0 .758-.192 1.025-.575.283-.383.425-1.017.425-1.9s-.142-1.517-.425-1.9c-.267-.383-.609-.575-1.025-.575s-.775.192-1.075.575c-.284.383-.425 1.017-.425 1.9s.141 1.517.425 1.9c.3.383.658.575 1.075.575zm12.325 10.625c-.867 0-1.642-.192-2.325-.575-.667-.383-1.192-.933-1.575-1.65-.384-.733-.575-1.608-.575-2.625s.191-1.883.575-2.6.908-1.267 1.575-1.65c.683-.4 1.458-.6 2.325-.6s1.633.2 2.3.6a4.02 4.02 0 0 1 1.6 1.65c.4.717.6 1.583.6 2.6s-.2 1.892-.6 2.625a4.02 4.02 0 0 1-1.6 1.65c-.667.383-1.434.575-2.3.575zm0-2.375c.416 0 .766-.192 1.05-.575s.425-1.017.425-1.9-.142-1.517-.425-1.9-.634-.575-1.05-.575c-.4 0-.75.192-1.05.575-.284.383-.425 1.017-.425 1.9s.141 1.517.425 1.9c.3.383.65.575 1.05.575zm18.636-8.575h8.125v3.7h-8.125v-3.7zm.35 6.9h9.15V86h-14.05V68.5h13.725v3.825h-8.825v9.85zM177.682 86l6.225-8.175-.1 2.7-5.975-8.075h5.35l3.35 4.775-2 .1 3.55-4.875h5.025l-5.975 7.9v-2.6l6.15 8.25h-5.425l-3.5-5.1 2 .275L182.832 86h-5.15zm23.588.225c-1.5 0-2.842-.3-4.025-.9-1.167-.6-2.083-1.425-2.75-2.475-.667-1.067-1-2.283-1-3.65s.333-2.575 1-3.625 1.583-1.867 2.75-2.45c1.183-.6 2.525-.9 4.025-.9 1.533 0 2.858.325 3.975.975s1.908 1.567 2.375 2.75l-3.675 1.875c-.317-.633-.708-1.092-1.175-1.375-.467-.3-.975-.45-1.525-.45s-1.05.125-1.5.375-.808.617-1.075 1.1c-.25.467-.375 1.042-.375 1.725 0 .7.125 1.292.375 1.775.267.483.625.85 1.075 1.1s.95.375 1.5.375a2.89 2.89 0 0 0 1.525-.425c.467-.3.858-.767 1.175-1.4l3.675 1.875c-.467 1.183-1.258 2.1-2.375 2.75s-2.442.975-3.975.975zm8.09-.225V67.45h4.75V86h-4.75zm13.537.225c-1.1 0-2.092-.217-2.975-.65-.867-.433-1.55-1.108-2.05-2.025-.484-.933-.725-2.108-.725-3.525V72.45h4.75v6.8c0 1.05.191 1.8.575 2.25.4.45.958.675 1.675.675a2.55 2.55 0 0 0 1.275-.325c.383-.217.691-.558.925-1.025.233-.483.35-1.1.35-1.85V72.45h4.75V86h-4.525v-3.825l.875 1.075c-.467 1-1.142 1.75-2.025 2.25a5.9 5.9 0 0 1-2.875.725zm16.534 0a14.27 14.27 0 0 1-3.375-.4c-1.083-.267-1.958-.6-2.625-1l1.425-3.25c.633.383 1.375.692 2.225.925a10.08 10.08 0 0 0 2.5.325c.8 0 1.35-.083 1.65-.25.317-.167.475-.392.475-.675 0-.267-.15-.458-.45-.575-.283-.133-.667-.233-1.15-.3l-1.55-.225-1.725-.325a6.26 6.26 0 0 1-1.575-.65c-.467-.3-.842-.7-1.125-1.2s-.425-1.133-.425-1.9a3.73 3.73 0 0 1 .75-2.3c.517-.683 1.267-1.217 2.25-1.6.983-.4 2.183-.6 3.6-.6.95 0 1.908.1 2.875.3.983.183 1.808.467 2.475.85l-1.425 3.225c-.667-.383-1.333-.642-2-.775-.667-.15-1.3-.225-1.9-.225-.8 0-1.367.092-1.7.275-.317.183-.475.408-.475.675s.142.475.425.625c.283.133.658.242 1.125.325l1.575.225a12.22 12.22 0 0 1 1.7.325c.583.15 1.108.375 1.575.675.483.283.867.675 1.15 1.175.283.483.425 1.108.425 1.875 0 .833-.258 1.583-.775 2.25-.5.667-1.25 1.2-2.25 1.6-.983.4-2.208.6-3.675.6zm8.747-.225V72.45h4.75V86h-4.75zm2.375-15.05c-.867 0-1.567-.242-2.1-.725a2.33 2.33 0 0 1-.8-1.8 2.33 2.33 0 0 1 .8-1.8c.533-.483 1.233-.725 2.1-.725s1.567.233 2.1.7a2.18 2.18 0 0 1 .8 1.75c0 .75-.267 1.375-.8 1.875-.517.483-1.217.725-2.1.725zM259.79 86l-5.575-13.55h4.875l4.45 11.325h-2.45l4.675-11.325h4.525L264.69 86h-4.9zm18.462.225c-1.6 0-3-.3-4.2-.9-1.184-.617-2.109-1.45-2.775-2.5-.65-1.067-.975-2.275-.975-3.625s.316-2.55.95-3.6a6.6 6.6 0 0 1 2.675-2.475c1.133-.6 2.408-.9 3.825-.9 1.333 0 2.55.275 3.65.825 1.1.533 1.975 1.325 2.625 2.375s.975 2.325.975 3.825l-.025.575-.05.6h-10.725v-2.5h8.2l-1.8.7c.016-.617-.1-1.15-.35-1.6-.234-.45-.567-.8-1-1.05-.417-.25-.909-.375-1.475-.375s-1.067.125-1.5.375a2.54 2.54 0 0 0-.975 1.075c-.234.45-.35.983-.35 1.6v.725c0 .667.133 1.242.4 1.725.283.483.683.858 1.2 1.125.516.25 1.133.375 1.85.375.666 0 1.233-.092 1.7-.275.483-.2.958-.5 1.425-.9l2.5 2.6a6.44 6.44 0 0 1-2.4 1.65c-.95.367-2.075.55-3.375.55zM167.788 114V96.5h8.275c1.933 0 3.633.358 5.1 1.075s2.608 1.725 3.425 3.025c.833 1.3 1.25 2.85 1.25 4.65 0 1.783-.417 3.333-1.25 4.65-.817 1.3-1.959 2.308-3.425 3.025s-3.167 1.075-5.1 1.075h-8.275zm4.95-3.95h3.125c1 0 1.866-.183 2.6-.55.75-.383 1.333-.933 1.75-1.65.416-.733.625-1.6.625-2.6 0-1.017-.209-1.883-.625-2.6a4.02 4.02 0 0 0-1.75-1.625c-.734-.383-1.6-.575-2.6-.575h-3.125v9.6zm15.479 3.95v-13.55h4.75V114h-4.75zm2.375-15.05c-.867 0-1.567-.242-2.1-.725a2.33 2.33 0 0 1-.8-1.8 2.33 2.33 0 0 1 .8-1.8c.533-.483 1.233-.725 2.1-.725s1.567.233 2.1.7a2.18 2.18 0 0 1 .8 1.75c0 .75-.267 1.375-.8 1.875-.517.483-1.217.725-2.1.725zm10.387 15.275c-1.15 0-2.275-.133-3.375-.4-1.083-.267-1.958-.6-2.625-1l1.425-3.25c.633.383 1.375.692 2.225.925a10.08 10.08 0 0 0 2.5.325c.8 0 1.35-.083 1.65-.25.317-.167.475-.392.475-.675 0-.267-.15-.458-.45-.575-.283-.133-.667-.233-1.15-.3l-1.55-.225-1.725-.325a6.27 6.27 0 0 1-1.575-.65c-.467-.3-.842-.7-1.125-1.2s-.425-1.133-.425-1.9a3.73 3.73 0 0 1 .75-2.3c.517-.683 1.267-1.217 2.25-1.6.983-.4 2.183-.6 3.6-.6.95 0 1.908.1 2.875.3.983.183 1.808.467 2.475.85l-1.425 3.225c-.667-.383-1.333-.642-2-.775-.667-.15-1.3-.225-1.9-.225-.8 0-1.367.092-1.7.275-.317.183-.475.408-.475.675s.142.475.425.625c.283.133.658.242 1.125.325l1.575.225c.567.067 1.133.175 1.7.325.583.15 1.108.375 1.575.675.483.283.867.675 1.15 1.175.283.483.425 1.108.425 1.875 0 .833-.258 1.583-.775 2.25-.5.667-1.25 1.2-2.25 1.6-.983.4-2.208.6-3.675.6zm15.672 0c-1.5 0-2.842-.3-4.025-.9-1.167-.6-2.083-1.425-2.75-2.475-.667-1.067-1-2.283-1-3.65s.333-2.575 1-3.625 1.583-1.867 2.75-2.45c1.183-.6 2.525-.9 4.025-.9 1.533 0 2.858.325 3.975.975s1.908 1.567 2.375 2.75l-3.675 1.875c-.317-.633-.708-1.092-1.175-1.375-.467-.3-.975-.45-1.525-.45s-1.05.125-1.5.375-.808.617-1.075 1.1c-.25.467-.375 1.042-.375 1.725 0 .7.125 1.292.375 1.775.267.483.625.85 1.075 1.1s.95.375 1.5.375a2.89 2.89 0 0 0 1.525-.425c.467-.3.858-.767 1.175-1.4l3.675 1.875c-.467 1.183-1.258 2.1-2.375 2.75s-2.442.975-3.975.975zm14.792 0c-1.484 0-2.8-.3-3.95-.9s-2.059-1.425-2.725-2.475c-.65-1.067-.975-2.283-.975-3.65s.325-2.575.975-3.625c.666-1.05 1.575-1.867 2.725-2.45 1.15-.6 2.466-.9 3.95-.9s2.8.3 3.95.9c1.166.583 2.075 1.4 2.725 2.45s.975 2.258.975 3.625-.325 2.583-.975 3.65c-.65 1.05-1.559 1.875-2.725 2.475-1.15.6-2.467.9-3.95.9zm0-3.775c.55 0 1.033-.125 1.45-.375.433-.25.775-.617 1.025-1.1.25-.5.375-1.092.375-1.775s-.125-1.258-.375-1.725c-.25-.483-.592-.85-1.025-1.1-.417-.25-.9-.375-1.45-.375-.534 0-1.017.125-1.45.375-.417.25-.759.617-1.025 1.1-.25.467-.375 1.042-.375 1.725s.125 1.275.375 1.775c.266.483.608.85 1.025 1.1.433.25.916.375 1.45.375zm15.55 3.775c-1.1 0-2.091-.217-2.975-.65-.866-.433-1.55-1.108-2.05-2.025-.483-.933-.725-2.108-.725-3.525v-7.575h4.75v6.8c0 1.05.192 1.8.575 2.25.4.45.959.675 1.675.675a2.54 2.54 0 0 0 1.275-.325c.384-.217.692-.558.925-1.025.234-.483.35-1.1.35-1.85v-6.525h4.75V114h-4.525v-3.825l.875 1.075c-.466 1-1.141 1.75-2.025 2.25-.883.483-1.841.725-2.875.725zm20.435-14c1.05 0 2 .217 2.85.65.85.417 1.516 1.067 2 1.95.5.883.75 2.025.75 3.425V114h-4.75v-6.975c0-.967-.2-1.667-.6-2.1-.384-.45-.925-.675-1.625-.675-.5 0-.959.117-1.375.35-.417.217-.742.558-.975 1.025s-.35 1.075-.35 1.825V114h-4.75v-13.55h4.525v3.85l-.875-1.125c.516-.983 1.225-1.717 2.125-2.2.9-.5 1.916-.75 3.05-.75zm14.632 14c-1.733 0-3.083-.425-4.05-1.275-.967-.867-1.45-2.167-1.45-3.9V97.425h4.75V109c0 .483.133.867.4 1.15.267.267.608.4 1.025.4.567 0 1.05-.142 1.45-.425l1.175 3.325c-.4.267-.892.458-1.475.575-.583.133-1.192.2-1.825.2zm-7.475-9.725v-3.55h9.825v3.55h-9.825zm-110.093 33.292v-6.75h1.605v6.75h-1.605zm-2.655-2.625v-1.5h6.915v1.5h-6.915zm11.54 4.65a7.63 7.63 0 0 1-2.175-.315c-.7-.22-1.29-.52-1.77-.9l.84-1.515c.38.31.84.56 1.38.75a5.07 5.07 0 0 0 1.695.285c.7 0 1.245-.14 1.635-.42a1.38 1.38 0 0 0 .585-1.17c0-.48-.18-.86-.54-1.14s-.94-.42-1.74-.42h-.96v-1.335l3-3.57.255.735h-5.64v-1.635h7.155v1.305l-3 3.57-1.02-.6h.585c1.29 0 2.255.29 2.895.87.65.57.975 1.305.975 2.205a3.12 3.12 0 0 1-.45 1.635c-.3.5-.76.905-1.38 1.215-.61.3-1.385.45-2.325.45zm12.111-5.82h5.235v1.65h-5.235v-1.65zm.165 5.67h-1.95v-10.5h7.665v1.635h-5.715v8.865zm7.6 0v-10.5h4.32c.93 0 1.725.15 2.385.45.67.3 1.185.73 1.545 1.29s.54 1.225.54 1.995-.18 1.435-.54 1.995c-.36.55-.875.975-1.545 1.275-.66.29-1.455.435-2.385.435h-3.24l.87-.885v3.945h-1.95zm6.87 0l-2.655-3.81h2.085l2.67 3.81h-2.1zm-4.92-3.735l-.87-.93h3.15c.86 0 1.505-.185 1.935-.555.44-.37.66-.885.66-1.545 0-.67-.22-1.185-.66-1.545-.43-.36-1.075-.54-1.935-.54h-3.15l.87-.96v6.075zm10.822-2.4h5.22v1.605h-5.22v-1.605zm.15 4.5h5.925v1.635h-7.875v-10.5h7.665v1.635h-5.715v7.23zm9.899-4.5h5.22v1.605h-5.22v-1.605zm.15 4.5h5.925v1.635h-7.875v-10.5h7.665v1.635h-5.715v7.23zm12.244 1.635v-10.5h1.605l4.59 7.665h-.84l4.515-7.665h1.605l.015 10.5h-1.845l-.015-7.605h.39l-3.84 6.405h-.87l-3.9-6.405h.45v7.605h-1.86zm17.746.105c-.82 0-1.55-.175-2.19-.525-.64-.36-1.145-.85-1.515-1.47s-.555-1.325-.555-2.115c0-.8.185-1.505.555-2.115.37-.62.875-1.105 1.515-1.455s1.37-.525 2.19-.525c.83 0 1.565.175 2.205.525.65.35 1.155.83 1.515 1.44.37.61.555 1.32.555 2.13 0 .79-.185 1.495-.555 2.115-.36.62-.865 1.11-1.515 1.47-.64.35-1.375.525-2.205.525zm0-1.605a2.49 2.49 0 0 0 1.23-.3c.36-.2.64-.49.84-.87.21-.38.315-.825.315-1.335 0-.52-.105-.965-.315-1.335-.2-.38-.48-.67-.84-.87s-.765-.3-1.215-.3a2.49 2.49 0 0 0-1.23.3 2.2 2.2 0 0 0-.84.87c-.21.37-.315.815-.315 1.335 0 .51.105.955.315 1.335a2.2 2.2 0 0 0 .84.87c.36.2.765.3 1.215.3zm10.613-6.6c.64 0 1.21.125 1.71.375.51.25.91.635 1.2 1.155.29.51.435 1.17.435 1.98v4.59h-1.875v-4.35c0-.71-.17-1.24-.51-1.59-.33-.35-.795-.525-1.395-.525-.44 0-.83.09-1.17.27s-.605.45-.795.81c-.18.35-.27.795-.27 1.335v4.05h-1.875v-8.01h1.785v2.16l-.315-.66c.28-.51.685-.9 1.215-1.17.54-.28 1.16-.42 1.86-.42zm8.739 8.205c-.88 0-1.56-.225-2.04-.675-.48-.46-.72-1.135-.72-2.025v-7.185h1.875v7.14c0 .38.095.675.285.885.2.21.475.315.825.315.42 0 .77-.11 1.05-.33l.525 1.335c-.22.18-.49.315-.81.405a3.64 3.64 0 0 1-.99.135zm-4.08-6.555v-1.5h5.34v1.5h-5.34zm11.967-1.65c.64 0 1.21.125 1.71.375.51.25.91.635 1.2 1.155.29.51.435 1.17.435 1.98v4.59h-1.875v-4.35c0-.71-.17-1.24-.51-1.59-.33-.35-.795-.525-1.395-.525-.44 0-.83.09-1.17.27s-.605.45-.795.81c-.18.35-.27.795-.27 1.335v4.05h-1.875v-11.13h1.875v5.28l-.405-.66c.28-.51.685-.9 1.215-1.17.54-.28 1.16-.42 1.86-.42zm8.199 8.205c-.67 0-1.315-.085-1.935-.255-.61-.18-1.095-.395-1.455-.645l.72-1.425c.36.23.79.42 1.29.57s1 .225 1.5.225c.59 0 1.015-.08 1.275-.24.27-.16.405-.375.405-.645a.54.54 0 0 0-.27-.495c-.18-.12-.415-.21-.705-.27l-.975-.165-1.065-.195c-.35-.09-.67-.215-.96-.375a2.07 2.07 0 0 1-.705-.675c-.18-.28-.27-.65-.27-1.11 0-.51.145-.95.435-1.32.29-.38.695-.67 1.215-.87.53-.21 1.155-.315 1.875-.315.54 0 1.085.06 1.635.18s1.005.29 1.365.51l-.72 1.425a3.64 3.64 0 0 0-1.155-.465 4.93 4.93 0 0 0-1.14-.135c-.57 0-.995.085-1.275.255-.27.17-.405.385-.405.645 0 .24.09.42.27.54s.415.215.705.285a10.34 10.34 0 0 0 .96.18c.36.04.715.105 1.065.195s.67.215.96.375c.3.15.54.365.72.645s.27.645.27 1.095c0 .5-.15.935-.45 1.305-.29.37-.705.66-1.245.87-.54.2-1.185.3-1.935.3z"/><path d="M219.308 191.927c-1.213 0-2.376-.159-3.488-.477-1.112-.332-2.008-.758-2.687-1.278l1.192-2.644c.65.463 1.415.845 2.296 1.149.896.289 1.799.433 2.709.433.693 0 1.249-.065 1.668-.195.433-.144.751-.339.953-.585a1.29 1.29 0 0 0 .304-.845c0-.404-.159-.722-.477-.953-.318-.246-.737-.441-1.257-.585-.52-.159-1.097-.304-1.733-.434l-1.885-.52c-.621-.202-1.192-.462-1.712-.78a3.92 3.92 0 0 1-1.278-1.256c-.318-.52-.477-1.185-.477-1.994 0-.866.232-1.654.694-2.361.476-.723 1.184-1.293 2.123-1.712.953-.433 2.145-.65 3.575-.65.953 0 1.892.116 2.817.347.924.216 1.74.549 2.448.996l-1.083 2.665c-.708-.404-1.416-.7-2.124-.888-.707-.202-1.401-.303-2.08-.303s-1.235.079-1.668.238-.744.368-.932.628c-.187.246-.281.535-.281.867a1.15 1.15 0 0 0 .476.953c.318.231.737.419 1.257.564l1.712.433 1.885.498a7.25 7.25 0 0 1 1.733.759 3.73 3.73 0 0 1 1.257 1.256c.332.52.498 1.178.498 1.972a4.1 4.1 0 0 1-.715 2.34c-.477.708-1.192 1.278-2.145 1.712-.939.433-2.13.65-3.575.65zm11.98-.26V179.36h-4.853v-2.86h13.217v2.86h-4.854v12.307h-3.51zm7.714 0l6.76-15.167h3.466l6.782 15.167h-3.683l-5.547-13.39h1.387l-5.569 13.39h-3.596zm3.38-3.25l.931-2.665h7.8l.954 2.665h-9.685zm15.418 3.25V176.5h6.565c1.358 0 2.528.224 3.51.672.983.433 1.741 1.061 2.275 1.885s.802 1.805.802 2.946c0 1.127-.267 2.102-.802 2.925-.534.809-1.292 1.43-2.275 1.864s-2.152.65-3.51.65h-4.615l1.56-1.539v5.764h-3.51zm9.642 0l-3.792-5.504h3.749l3.835 5.504h-3.792zm-6.132-5.374l-1.56-1.646h4.42c1.084 0 1.893-.231 2.427-.694.534-.476.802-1.126.802-1.95 0-.837-.268-1.487-.802-1.95s-1.343-.693-2.427-.693h-4.42l1.56-1.668v8.601zm15.57 5.374V179.36h-4.854v-2.86h13.217v2.86h-4.853v12.307h-3.51zm-50.675 24V200.5h2.903l8.949 10.92h-1.409V200.5h3.467v15.167h-2.882l-8.97-10.92h1.409v10.92h-3.467zm25.082.26c-1.199 0-2.311-.195-3.337-.585a8.01 8.01 0 0 1-2.643-1.647c-.737-.708-1.315-1.538-1.734-2.492-.404-.953-.606-1.993-.606-3.12s.202-2.166.606-3.12a7.57 7.57 0 0 1 1.755-2.491c.752-.708 1.633-1.257 2.644-1.647s2.109-.585 3.293-.585c1.199 0 2.297.195 3.293.585 1.012.39 1.885.939 2.622 1.647a7.57 7.57 0 0 1 1.755 2.491c.419.939.628 1.979.628 3.12 0 1.127-.209 2.174-.628 3.142-.419.953-1.004 1.784-1.755 2.492-.737.693-1.61 1.235-2.622 1.625-.996.39-2.087.585-3.271.585zm-.022-2.99c.679 0 1.3-.116 1.863-.347.578-.231 1.084-.563 1.517-.997s.766-.946.997-1.538c.245-.592.368-1.249.368-1.972s-.123-1.379-.368-1.971c-.231-.593-.564-1.105-.997-1.539-.419-.433-.917-.765-1.495-.996s-1.206-.347-1.885-.347-1.307.116-1.885.347c-.563.231-1.062.563-1.495.996s-.773.946-1.018 1.539c-.231.592-.347 1.249-.347 1.971 0 .708.116 1.365.347 1.972.245.592.578 1.105.996 1.538.434.434.939.766 1.517.997s1.206.347 1.885.347zm14.306 2.73L260.61 200.5h3.64l4.311 13.433h-1.82l4.507-13.433h3.25l4.333 13.433h-1.755l4.42-13.433h3.359l-4.962 15.167h-3.77l-3.835-11.787h.997l-3.944 11.787h-3.77z"/></g><path fill="url(#B)" d="M56 13h243v41H56z"/><g clip-path="url(#D)"><g fill="#fff"><path d="M153.115 38.6h-4.456l-5.981-6.849V38.6h-3.042v-9.415h4.512l5.933 6.901v-6.901h3.034V38.6zm12.515-7.124h-7.853v1.425h7.395v1.977h-7.395v1.447h7.971V38.6h-11.013v-9.415h10.895v2.29zm7.3 7.124h-3.484l-3.184-9.415h3.034l2.054 6.692 2.552-6.692h2.797l2.409 6.692 2.197-6.692h3.033l-3.334 9.415h-3.429l-2.307-6.491-2.338 6.491zm11.709-3.133h3.01v.179a.78.78 0 0 0 .033.406.82.82 0 0 0 .235.34c.36.16.758.224 1.154.187h3.824c.277.021.553-.041.79-.179a.74.74 0 0 0 .193-.272.71.71 0 0 0 .052-.324.66.66 0 0 0-.057-.335.69.69 0 0 0-.22-.269 2.74 2.74 0 0 0-1.193-.246l-4.74-.104c-.866.067-1.73-.161-2.434-.642a2.93 2.93 0 0 1-.632-2.163 4.25 4.25 0 0 1 .174-1.335c.096-.328.278-.629.529-.873a2.5 2.5 0 0 1 1.138-.552 11.1 11.1 0 0 1 2.291-.164h4.646a4.13 4.13 0 0 1 2.457.56 2.37 2.37 0 0 1 .629.881 2.27 2.27 0 0 1 .161 1.052v.186.328h-2.931a.89.89 0 0 0-.051-.375.93.93 0 0 0-.202-.326c-.102-.09-.223-.158-.355-.202a1.08 1.08 0 0 0-.411-.052h-3.508a2.63 2.63 0 0 0-1.161.164.62.62 0 0 0-.228.25.58.58 0 0 0-.057.325.65.65 0 0 0 .053.322.68.68 0 0 0 .208.26 1.93 1.93 0 0 0 .932.231l5.009.075c.877-.052 1.743.214 2.418.746a3.2 3.2 0 0 1 .695 2.328 3.54 3.54 0 0 1-.261 1.492 2.2 2.2 0 0 1-.861.918 3.06 3.06 0 0 1-1.09.343 14.85 14.85 0 0 1-1.999.104h-4.101c-1.667 0-2.781-.179-3.342-.53a2.21 2.21 0 0 1-.692-.882c-.148-.344-.2-.719-.153-1.088v-.746m16.923 3.115h-3.042v-9.415h3.042v3.454h6.234v-3.454h3.065V38.6h-3.065v-3.685h-6.234V38.6zm15.707.112a15.99 15.99 0 0 1-2.56-.149 3.27 3.27 0 0 1-1.319-.507 2.33 2.33 0 0 1-.791-1.059 4.99 4.99 0 0 1-.252-1.738v-2.596a5.66 5.66 0 0 1 .252-1.872 2.3 2.3 0 0 1 .791-1.089 3.26 3.26 0 0 1 1.335-.507 15.15 15.15 0 0 1 2.528-.149h3.587a15.22 15.22 0 0 1 2.536.149 3.2 3.2 0 0 1 1.335.507 2.24 2.24 0 0 1 .79 1.082 5.09 5.09 0 0 1 .261 1.768v2.626a4.96 4.96 0 0 1-.261 1.761c-.146.427-.421.806-.79 1.089a3.2 3.2 0 0 1-1.327.507 15.92 15.92 0 0 1-2.544.149l-3.571.03zm.79-2.35h1.935c.739.073 1.484-.062 2.142-.388a1.68 1.68 0 0 0 .442-.65c.092-.246.121-.509.087-.768v-1.335a1.59 1.59 0 0 0-.088-.767c-.092-.246-.243-.468-.441-.65a4.04 4.04 0 0 0-2.142-.38h-1.951a4.04 4.04 0 0 0-2.157.38c-.198.197-.347.433-.436.691a1.73 1.73 0 0 0-.077.801v1.313a1.56 1.56 0 0 0 .095.759 1.64 1.64 0 0 0 .45.636c.66.317 1.403.449 2.141.381m9.118-.918h3.002v.179a.78.78 0 0 0 .037.407c.048.13.131.247.24.34a2.3 2.3 0 0 0 1.153.187h3.832c.277.021.553-.042.79-.179.085-.076.151-.169.194-.272a.71.71 0 0 0 .051-.325.63.63 0 0 0-.058-.337.69.69 0 0 0-.226-.267 2.68 2.68 0 0 0-1.193-.246l-4.78-.105c-.864.067-1.725-.16-2.426-.642a2.93 2.93 0 0 1-.632-2.164c-.011-.45.044-.9.166-1.335.099-.329.283-.629.537-.873.321-.276.713-.467 1.138-.552.755-.134 1.523-.189 2.291-.164h4.646a4.13 4.13 0 0 1 2.488.589 2.37 2.37 0 0 1 .63.881 2.26 2.26 0 0 1 .161 1.052v.186.328h-2.987c.012-.127-.005-.255-.048-.376a.91.91 0 0 0-.205-.325 1.03 1.03 0 0 0-.35-.188 1.07 1.07 0 0 0-.4-.044h-3.508c-.393-.034-.789.022-1.154.164-.098.062-.177.149-.227.25a.58.58 0 0 0-.057.325.65.65 0 0 0 .052.32.68.68 0 0 0 .201.262 1.99 1.99 0 0 0 .956.119l5.009.075c.875-.053 1.737.214 2.409.746a3.17 3.17 0 0 1 .704 2.328c.021.509-.067 1.017-.261 1.492a2.23 2.23 0 0 1-.869.918 3.06 3.06 0 0 1-1.091.343 14.54 14.54 0 0 1-1.99.104h-4.061c-1.667 0-2.774-.179-3.342-.53a2.2 2.2 0 0 1-.688-.883 2.08 2.08 0 0 1-.15-1.087v-.746m20.352 3.178h-3.042v-7.11h-4.163v-2.305h11.376v2.305h-4.171v7.11zm8.335-9.415h-3.041V38.6h3.041v-9.415zm15.311 9.415h-4.464l-5.973-6.849V38.6h-3.041v-9.415h4.503l5.941 6.901v-6.901h3.034V38.6zm11.061-6.02c.022-.169-.005-.341-.077-.497a.97.97 0 0 0-.334-.391 4.59 4.59 0 0 0-1.872-.239h-1.778a3.67 3.67 0 0 0-1.999.351 1.96 1.96 0 0 0-.377.705 1.89 1.89 0 0 0-.057.788v1.313a1.67 1.67 0 0 0 .082.748 1.74 1.74 0 0 0 .408.647 3.49 3.49 0 0 0 1.959.38h1.762a4.91 4.91 0 0 0 1.801-.224c.152-.065.28-.17.368-.302a.76.76 0 0 0 .13-.444 2.15 2.15 0 0 0 0-.254h0-3.587v-1.902h6.755v3.089c.033.376-.047.752-.232 1.086a2.05 2.05 0 0 1-.811.801c-1.145.453-2.388.645-3.626.56h-3.421a12.2 12.2 0 0 1-2.299-.157 3.34 3.34 0 0 1-1.264-.537 2.69 2.69 0 0 1-.877-1.104 4.38 4.38 0 0 1-.269-1.656v-2.678c0-1.35.332-2.29 1.011-2.82s1.904-.798 3.69-.798h3.397a15.94 15.94 0 0 1 2.434.134 2.98 2.98 0 0 1 1.224.47c.323.234.565.554.695.918a4.06 4.06 0 0 1 .23 1.492v.321.209l-3.066-.008zm-147.627.924c-.002 3.845-1.612 7.532-4.476 10.251S123.322 48 119.273 48s-7.933-1.527-10.797-4.245-4.474-6.405-4.476-10.251 1.609-7.536 4.473-10.256S115.222 19 119.273 19s7.935 1.528 10.799 4.248 4.473 6.409 4.473 10.256"/></g><path d="M123.029 30.715h3.52l-7.248-6.882-7.248 6.882h3.52v5.57h-3.52l7.248 6.882 7.248-6.882h-3.52v-5.57z" fill="#1c3f73"/></g></g><defs><linearGradient id="A" x1="149" y1="0" x2="149" y2="300" gradientUnits="userSpaceOnUse"><stop stop-color="#26315a"/><stop offset="1" stop-color="#1a223f"/></linearGradient><linearGradient id="B" x1="56" y1="33.5" x2="299" y2="33.5" gradientUnits="userSpaceOnUse"><stop stop-color="#27325a" stop-opacity="0"/><stop offset="1" stop-color="#1a223e"/></linearGradient><clipPath id="C"><path fill="#fff" d="M0 0h300v300H0z"/></clipPath><clipPath id="D"><path fill="#fff" transform="translate(104 19)" d="M0 0h182v29H0z"/></clipPath></defs></svg>