<svg xmlns="http://www.w3.org/2000/svg" width="1782" height="230" fill="none"><path fill="url(#A)" d="M0 0h1782v230H0z"/><path d="M68.09 204.797h-9.286L46.34 189.764v15.033H40v-20.666h9.402l12.365 15.148v-15.148h6.323v20.666zm26.082-15.639H77.805v3.128h15.412v4.34H77.805v3.177h16.613v4.994H71.466v-20.666h22.706v5.027zm15.213 15.639h-7.261l-6.636-20.666h6.323l4.281 14.689 5.318-14.689h5.829l5.022 14.689 4.577-14.689h6.323l-6.948 20.666h-7.146l-4.808-14.247-4.874 14.247zm24.402-6.878h6.273v.393c-.052.298-.028.604.069.89a1.81 1.81 0 0 0 .491.748c.749.351 1.58.492 2.404.409h7.969a2.73 2.73 0 0 0 1.647-.393c.177-.167.315-.371.403-.598a1.63 1.63 0 0 0 .107-.712 1.5 1.5 0 0 0-.118-.736c-.101-.232-.258-.435-.458-.59-.775-.373-1.627-.558-2.487-.541l-9.879-.229a7.62 7.62 0 0 1-5.071-1.409c-1.03-1.359-1.501-3.057-1.317-4.749a9.74 9.74 0 0 1 .362-2.931c.2-.721.579-1.38 1.103-1.916a5.1 5.1 0 0 1 2.371-1.212 22.03 22.03 0 0 1 4.775-.36h9.682a8.27 8.27 0 0 1 5.12 1.228c.578.538 1.027 1.199 1.312 1.933a5.2 5.2 0 0 1 .335 2.309v.409.721h-6.109a2.05 2.05 0 0 0-.106-.823c-.09-.265-.233-.509-.421-.717-.213-.197-.465-.347-.74-.443a2.13 2.13 0 0 0-.857-.114h-7.31c-.824-.072-1.654.052-2.421.361a1.34 1.34 0 0 0-.473.548c-.105.222-.146.469-.119.713a1.46 1.46 0 0 0 .111.706c.095.223.243.419.432.571.591.337 1.261.512 1.943.508l10.439.163c1.828-.115 3.631.471 5.038 1.638a7.29 7.29 0 0 1 1.449 5.109c.046 1.118-.139 2.232-.543 3.276-.39.83-1.013 1.529-1.795 2.014-.7.397-1.472.653-2.272.753-1.382.175-2.774.252-4.166.229h-8.545c-3.475 0-5.796-.393-6.965-1.162a4.81 4.81 0 0 1-1.443-1.936 4.79 4.79 0 0 1-.319-2.388v-1.637m35.268 6.845h-6.339v-20.666h6.339v7.582h12.991v-7.582h6.389v20.666h-6.389v-8.09h-12.991v8.09zm32.733.246c-1.785.041-3.569-.068-5.335-.328-.99-.158-1.93-.539-2.75-1.113-.759-.605-1.33-1.411-1.646-2.326a11.5 11.5 0 0 1-.527-3.815v-5.699a13.02 13.02 0 0 1 .527-4.111c.302-.94.874-1.771 1.646-2.391.829-.579 1.782-.96 2.783-1.113 1.743-.264 3.506-.374 5.269-.328h7.475c1.768-.046 3.537.064 5.285.328a6.47 6.47 0 0 1 2.783 1.113 4.91 4.91 0 0 1 1.646 2.375 11.71 11.71 0 0 1 .544 3.881v5.764a11.41 11.41 0 0 1-.544 3.865 5.11 5.11 0 0 1-1.646 2.391c-.822.581-1.769.962-2.766 1.114-1.755.258-3.529.367-5.302.327l-7.442.066zm1.646-5.159h4.034c1.539.161 3.092-.136 4.462-.851.415-.398.73-.886.922-1.426a3.66 3.66 0 0 0 .181-1.686v-2.931c.071-.568.008-1.145-.183-1.685a3.69 3.69 0 0 0-.92-1.427c-1.375-.7-2.925-.99-4.462-.835h-4.067c-1.548-.162-3.11.128-4.495.835a4 4 0 0 0-.908 1.517 3.99 3.99 0 0 0-.162 1.759v2.882c-.066.563.002 1.134.199 1.666a3.61 3.61 0 0 0 .937 1.396c1.377.697 2.925.987 4.462.835m19.003-2.014h6.257v.393c-.05.299-.024.606.077.893a1.8 1.8 0 0 0 .499.745c.749.351 1.58.492 2.404.409h7.986a2.74 2.74 0 0 0 1.646-.393c.178-.167.316-.371.404-.598a1.63 1.63 0 0 0 .107-.712c.024-.253-.017-.508-.121-.741a1.47 1.47 0 0 0-.472-.585 5.35 5.35 0 0 0-2.486-.541l-9.962-.229c-1.8.148-3.594-.352-5.055-1.408-1.029-1.359-1.5-3.057-1.317-4.749a10.43 10.43 0 0 1 .346-2.932 4.47 4.47 0 0 1 1.12-1.916c.668-.606 1.486-1.024 2.371-1.212 1.573-.294 3.174-.415 4.775-.36h9.681a8.27 8.27 0 0 1 5.187 1.294c.578.538 1.026 1.199 1.311 1.933s.4 1.524.335 2.308c.008.137.008.273 0 .41v.72h-6.224a1.99 1.99 0 0 0-.1-.825 2.01 2.01 0 0 0-.427-.714c-.213-.185-.461-.325-.73-.412s-.552-.12-.834-.096h-7.31c-.819-.075-1.644.049-2.404.36-.205.137-.369.326-.474.549s-.146.468-.119.712c-.021.24.016.48.108.703a1.5 1.5 0 0 0 .419.575c.63.257 1.316.347 1.992.262l10.439.164c1.823-.116 3.622.47 5.022 1.637 1.122 1.457 1.646 3.283 1.466 5.11a8.16 8.16 0 0 1-.544 3.275 4.79 4.79 0 0 1-1.811 2.014c-.7.397-1.472.653-2.272.753a28.93 28.93 0 0 1-4.15.23h-8.463c-3.474 0-5.779-.393-6.964-1.163a4.82 4.82 0 0 1-1.434-1.938 4.8 4.8 0 0 1-.312-2.385v-1.638m42.414 6.976h-6.339v-15.606h-8.678v-5.06h23.71v5.06h-8.693v15.606zm17.371-20.666h-6.339v20.666h6.339v-20.666zm31.908 20.666h-9.302l-12.448-15.033v15.033h-6.339v-20.666h9.385l12.382 15.148v-15.148h6.322v20.666zm23.053-13.215c.045-.372-.011-.748-.162-1.091a2.09 2.09 0 0 0-.695-.858c-1.246-.457-2.578-.636-3.902-.524h-3.705a7.31 7.31 0 0 0-4.165.77 4.37 4.37 0 0 0-.786 1.546 4.35 4.35 0 0 0-.12 1.729v2.882a3.83 3.83 0 0 0 .172 1.643 3.85 3.85 0 0 0 .849 1.419c1.243.689 2.668.98 4.083.836h3.672a9.74 9.74 0 0 0 3.754-.492 1.76 1.76 0 0 0 .767-.663c.184-.291.278-.63.27-.974.011-.186.011-.372 0-.557h0-7.475v-4.176h14.078v6.78c.069.824-.099 1.651-.484 2.384a4.38 4.38 0 0 1-1.689 1.759c-2.388.994-4.977 1.415-7.558 1.228h-7.129c-1.605.045-3.21-.07-4.792-.344a6.79 6.79 0 0 1-2.634-1.179c-.812-.635-1.443-1.47-1.828-2.424-.409-1.167-.598-2.399-.56-3.635v-5.879c0-2.964.692-5.028 2.108-6.19s3.968-1.753 7.689-1.753h7.08a31.61 31.61 0 0 1 5.071.295 6.02 6.02 0 0 1 2.553 1.032c.672.514 1.176 1.215 1.449 2.014a9.34 9.34 0 0 1 .477 3.275v.705.458l-6.388-.016zm-71.827-95.198c-.011 19.19-7.64 37.59-21.209 51.155a72.35 72.35 0 0 1-102.306 0 72.4 72.4 0 0 1-21.21-51.155c0-19.197 7.624-37.609 21.195-51.183a72.35 72.35 0 0 1 102.336 0 72.4 72.4 0 0 1 21.194 51.183" fill="#fff"/><path d="M209.455 82.696h15.588l-32.1-32.261-32.099 32.261h15.588v26.111h-15.588l32.099 32.261 32.1-32.261h-15.588V82.696z" fill="#1c3f73"/><g fill="#fff"><path d="M571.753 58.528c-2.434 0-4.693-.396-6.776-1.188-2.053-.792-3.842-1.907-5.368-3.344-1.496-1.437-2.669-3.124-3.52-5.06-.821-1.936-1.232-4.048-1.232-6.336s.411-4.4 1.232-6.336a15.39 15.39 0 0 1 3.564-5.06c1.526-1.437 3.315-2.552 5.368-3.344s4.283-1.188 6.688-1.188c2.435 0 4.664.396 6.688 1.188 2.054.792 3.828 1.907 5.324 3.344a15.36 15.36 0 0 1 3.564 5.06c.851 1.907 1.276 4.019 1.276 6.336 0 2.288-.425 4.415-1.276 6.38a15.36 15.36 0 0 1-3.564 5.06c-1.496 1.408-3.27 2.508-5.324 3.3-2.024.792-4.238 1.188-6.644 1.188zm-.044-6.072c1.379 0 2.64-.235 3.784-.704 1.174-.469 2.2-1.144 3.08-2.024s1.555-1.921 2.024-3.124c.499-1.203.748-2.537.748-4.004s-.249-2.801-.748-4.004c-.469-1.203-1.144-2.244-2.024-3.124-.85-.88-1.862-1.555-3.036-2.024s-2.449-.704-3.828-.704-2.654.235-3.828.704c-1.144.469-2.156 1.144-3.036 2.024s-1.569 1.921-2.068 3.124c-.469 1.203-.704 2.537-.704 4.004 0 1.437.235 2.772.704 4.004.499 1.203 1.174 2.244 2.024 3.124.88.88 1.907 1.555 3.08 2.024s2.45.704 3.828.704zM593.478 58V27.2h23.276v5.72h-16.148V58h-7.128zm6.6-11.22v-5.72h14.784v5.72h-14.784zM621.14 58V27.2h23.276v5.72h-16.148V58h-7.128zm6.6-11.22v-5.72h14.784v5.72H627.74zM648.802 58V27.2h7.128V58h-7.128zm28.737.528c-2.376 0-4.591-.381-6.644-1.144-2.024-.792-3.784-1.907-5.28-3.344s-2.669-3.124-3.52-5.06c-.821-1.936-1.232-4.063-1.232-6.38s.411-4.444 1.232-6.38c.851-1.936 2.024-3.623 3.52-5.06 1.525-1.437 3.3-2.537 5.324-3.3 2.024-.792 4.239-1.188 6.644-1.188 2.669 0 5.075.469 7.216 1.408a13.87 13.87 0 0 1 5.456 4.048l-4.576 4.224c-1.056-1.203-2.229-2.097-3.52-2.684-1.291-.616-2.699-.924-4.224-.924-1.437 0-2.757.235-3.96.704s-2.244 1.144-3.124 2.024-1.569 1.921-2.068 3.124c-.469 1.203-.704 2.537-.704 4.004s.235 2.801.704 4.004c.499 1.203 1.188 2.244 2.068 3.124s1.921 1.555 3.124 2.024 2.523.704 3.96.704c1.525 0 2.933-.293 4.224-.88 1.291-.616 2.464-1.54 3.52-2.772l4.576 4.224c-1.467 1.789-3.285 3.153-5.456 4.092-2.141.939-4.561 1.408-7.26 1.408zm16.66-.528V27.2h7.128V58h-7.128zm9.949 0l13.728-30.8h7.04L738.688 58h-7.48l-11.264-27.192h2.816L711.452 58h-7.304zm6.864-6.6l1.892-5.412h15.84l1.936 5.412h-19.668zm30.432 6.6V27.2h7.128v24.992h15.444V58h-22.572zm48.256.528c-2.464 0-4.826-.323-7.084-.968-2.259-.675-4.078-1.54-5.456-2.596l2.42-5.368c1.32.939 2.874 1.716 4.664 2.332 1.818.587 3.652.88 5.5.88 1.408 0 2.537-.132 3.388-.396.88-.293 1.525-.689 1.936-1.188s.616-1.071.616-1.716c0-.821-.323-1.467-.968-1.936-.646-.499-1.496-.895-2.552-1.188-1.056-.323-2.23-.616-3.52-.88l-3.828-1.056c-1.262-.411-2.42-.939-3.476-1.584s-1.922-1.496-2.596-2.552c-.646-1.056-.968-2.405-.968-4.048a8.58 8.58 0 0 1 1.408-4.796c.968-1.467 2.405-2.625 4.312-3.476 1.936-.88 4.356-1.32 7.26-1.32a23.5 23.5 0 0 1 5.72.704c1.877.44 3.534 1.115 4.972 2.024l-2.2 5.412c-1.438-.821-2.875-1.423-4.312-1.804-1.438-.411-2.846-.616-4.224-.616s-2.508.161-3.388.484-1.511.748-1.892 1.276c-.382.499-.572 1.085-.572 1.76 0 .792.322 1.437.968 1.936.645.469 1.496.851 2.552 1.144l3.476.88 3.828 1.012c1.29.381 2.464.895 3.52 1.54a7.59 7.59 0 0 1 2.552 2.552c.674 1.056 1.012 2.391 1.012 4.004 0 1.731-.484 3.315-1.452 4.752s-2.42 2.596-4.356 3.476c-1.907.88-4.327 1.32-7.26 1.32zM803.15 58l13.728-30.8h7.04L837.69 58h-7.48l-11.264-27.192h2.816L810.454 58h-7.304zm6.864-6.6l1.892-5.412h15.84l1.936 5.412h-19.668zm30.432 6.6V27.2h15.048c3.872 0 6.776.733 8.712 2.2 1.965 1.467 2.948 3.403 2.948 5.808 0 1.613-.396 3.021-1.188 4.224-.792 1.173-1.878 2.083-3.256 2.728s-2.963.968-4.752.968l.836-1.804c1.936 0 3.652.323 5.148.968 1.496.616 2.654 1.54 3.476 2.772.85 1.232 1.276 2.743 1.276 4.532 0 2.64-1.042 4.708-3.124 6.204-2.083 1.467-5.148 2.2-9.196 2.2h-15.928zm7.084-5.368h8.316c1.848 0 3.241-.293 4.18-.88.968-.616 1.452-1.584 1.452-2.904 0-1.291-.484-2.244-1.452-2.86-.939-.645-2.332-.968-4.18-.968h-8.844v-5.192h7.612c1.73 0 3.05-.293 3.96-.88.938-.616 1.408-1.54 1.408-2.772 0-1.203-.47-2.097-1.408-2.684-.91-.616-2.23-.924-3.96-.924h-7.084v20.064zM873.166 58V34.328h6.556v6.556l-1.232-1.98a8.77 8.77 0 0 1 3.652-3.652c1.584-.851 3.388-1.276 5.412-1.276 1.878 0 3.55.381 5.016 1.144 1.496.733 2.67 1.877 3.52 3.432.851 1.525 1.276 3.491 1.276 5.896V58h-6.864V45.504c0-1.907-.425-3.315-1.276-4.224-.821-.909-1.994-1.364-3.52-1.364-1.085 0-2.068.235-2.948.704-.85.44-1.525 1.129-2.024 2.068-.469.939-.704 2.141-.704 3.608V58h-6.864zm28.354 0v-4.136l13.992-16.544 1.188 2.288h-14.872v-5.28h20.416v4.136l-13.992 16.544-1.232-2.288h15.62V58h-21.12zm39.071.352c-2.083 0-3.872-.44-5.368-1.32s-2.64-2.215-3.432-4.004c-.792-1.819-1.188-4.107-1.188-6.864 0-2.787.41-5.075 1.232-6.864.85-1.789 2.024-3.124 3.52-4.004s3.241-1.32 5.236-1.32c2.229 0 4.224.499 5.984 1.496 1.789.997 3.197 2.405 4.224 4.224 1.056 1.819 1.584 3.975 1.584 6.468 0 2.464-.528 4.605-1.584 6.424-1.027 1.819-2.435 3.241-4.224 4.268-1.76.997-3.755 1.496-5.984 1.496zM926.599 58V25.352h6.864v13.772l-.44 6.996.132 7.04V58h-6.556zm12.804-5.28c1.144 0 2.156-.264 3.036-.792.909-.528 1.628-1.276 2.156-2.244.557-.997.836-2.171.836-3.52 0-1.379-.279-2.552-.836-3.52-.528-.968-1.247-1.716-2.156-2.244-.88-.528-1.892-.792-3.036-.792s-2.171.264-3.08.792a5.67 5.67 0 0 0-2.156 2.244c-.528.968-.792 2.141-.792 3.52 0 1.349.264 2.523.792 3.52a5.67 5.67 0 0 0 2.156 2.244c.909.528 1.936.792 3.08.792zm27.299 5.632c-2.23 0-4.239-.499-6.028-1.496-1.79-1.027-3.212-2.449-4.268-4.268-1.027-1.819-1.54-3.96-1.54-6.424 0-2.493.513-4.649 1.54-6.468 1.056-1.819 2.478-3.227 4.268-4.224s3.798-1.496 6.028-1.496c1.994 0 3.74.44 5.236 1.32s2.654 2.215 3.476 4.004 1.232 4.077 1.232 6.864c0 2.757-.396 5.045-1.188 6.864-.792 1.789-1.936 3.124-3.432 4.004-1.467.88-3.242 1.32-5.324 1.32zm1.188-5.632c1.114 0 2.126-.264 3.036-.792s1.628-1.276 2.156-2.244c.557-.997.836-2.171.836-3.52 0-1.379-.279-2.552-.836-3.52-.528-.968-1.247-1.716-2.156-2.244s-1.922-.792-3.036-.792c-1.144 0-2.171.264-3.08.792s-1.643 1.276-2.2 2.244c-.528.968-.792 2.141-.792 3.52 0 1.349.264 2.523.792 3.52.557.968 1.29 1.716 2.2 2.244s1.936.792 3.08.792zm6.204 5.28v-4.84l.132-7.04-.44-6.996V25.352h6.864V58h-6.556zm39.936.528c-2.44 0-4.7-.396-6.78-1.188-2.05-.792-3.84-1.907-5.37-3.344a15.79 15.79 0 0 1-3.517-5.06c-.821-1.936-1.232-4.048-1.232-6.336s.411-4.4 1.232-6.336c.851-1.936 2.037-3.623 3.567-5.06 1.52-1.437 3.31-2.552 5.37-3.344 2.05-.792 4.28-1.188 6.68-1.188 2.44 0 4.67.396 6.69 1.188 2.05.792 3.83 1.907 5.33 3.344 1.52 1.437 2.71 3.124 3.56 5.06.85 1.907 1.28 4.019 1.28 6.336 0 2.288-.43 4.415-1.28 6.38-.85 1.936-2.04 3.623-3.56 5.06-1.5 1.408-3.28 2.508-5.33 3.3-2.02.792-4.24 1.188-6.64 1.188zm-.05-6.072c1.38 0 2.64-.235 3.79-.704 1.17-.469 2.2-1.144 3.08-2.024s1.55-1.921 2.02-3.124c.5-1.203.75-2.537.75-4.004s-.25-2.801-.75-4.004c-.47-1.203-1.14-2.244-2.02-3.124a8.66 8.66 0 0 0-3.04-2.024c-1.17-.469-2.45-.704-3.83-.704s-2.65.235-3.82.704c-1.15.469-2.16 1.144-3.04 2.024s-1.57 1.921-2.07 3.124c-.47 1.203-.7 2.537-.7 4.004 0 1.437.23 2.772.7 4.004.5 1.203 1.17 2.244 2.03 3.124.88.88 1.9 1.555 3.08 2.024 1.17.469 2.44.704 3.82.704zM1035.75 58V27.2h23.28v5.72h-16.15V58h-7.13zm6.6-11.22v-5.72h14.79v5.72h-14.79zM1063.41 58V27.2h23.28v5.72h-16.15V58h-7.13zm6.6-11.22v-5.72h14.79v5.72h-14.79zM1091.08 58V27.2h23.27v5.72h-16.19v19.36h16.76V58h-23.84zm6.55-12.848v-5.544h14.83v5.544h-14.83zM1120.16 58V27.2h13.15c4.28 0 7.61.997 9.99 2.992 2.38 1.965 3.56 4.693 3.56 8.184 0 2.288-.54 4.268-1.62 5.94-1.09 1.643-2.63 2.904-4.62 3.784-2 .88-4.38 1.32-7.13 1.32h-9.37l3.16-3.124V58h-7.12zm19.58 0l-7.7-11.176h7.61L1147.44 58h-7.7zm-12.46-10.912l-3.16-3.344h8.97c2.2 0 3.84-.469 4.93-1.408 1.08-.968 1.63-2.288 1.63-3.96 0-1.701-.55-3.021-1.63-3.96-1.09-.939-2.73-1.408-4.93-1.408h-8.97l3.16-3.388v17.468z"/><path d="M433.893 134l18.564-42.636 3.604 5.712h-24.14l5.508-6.188v13.532h-11.492V86.4h39.44v8.432L448.581 134h-14.688zm55.441.952c-4.08 0-7.707-.975-10.88-2.924-3.128-1.949-5.599-4.76-7.412-8.432s-2.72-8.137-2.72-13.396.906-9.724 2.72-13.396 4.284-6.483 7.412-8.432c3.173-1.949 6.8-2.924 10.88-2.924 4.034 0 7.616.975 10.744 2.924 3.173 1.949 5.666 4.76 7.48 8.432s2.72 8.137 2.72 13.396-.907 9.724-2.72 13.396-4.307 6.483-7.48 8.432c-3.128 1.949-6.71 2.924-10.744 2.924zm0-11.016c1.45 0 2.72-.453 3.808-1.36 1.133-.907 2.017-2.357 2.652-4.352.634-2.04.952-4.715.952-8.024 0-3.355-.318-6.029-.952-8.024s-1.519-3.445-2.652-4.352c-1.088-.907-2.358-1.36-3.808-1.36a6.03 6.03 0 0 0-3.876 1.36c-1.088.907-1.972 2.357-2.652 4.352-.635 1.995-.952 4.669-.952 8.024 0 3.309.317 5.984.952 8.024.68 1.995 1.564 3.445 2.652 4.352a6.03 6.03 0 0 0 3.876 1.36zM521.877 134l32.504-47.6h9.792L531.669 134h-9.792zm4.352-21.828c-2.312 0-4.398-.521-6.256-1.564s-3.31-2.539-4.352-4.488c-1.043-1.995-1.564-4.375-1.564-7.14s.521-5.123 1.564-7.072 2.493-3.445 4.352-4.488c1.858-1.088 3.944-1.632 6.256-1.632 2.357 0 4.442.544 6.256 1.632 1.858 1.043 3.309 2.539 4.352 4.488 1.088 1.949 1.632 4.307 1.632 7.072 0 2.72-.544 5.077-1.632 7.072-1.043 1.995-2.494 3.513-4.352 4.556-1.814 1.043-3.899 1.564-6.256 1.564zm.068-6.46c1.133 0 2.062-.521 2.788-1.564.77-1.043 1.156-2.765 1.156-5.168s-.386-4.125-1.156-5.168c-.726-1.043-1.655-1.564-2.788-1.564s-2.108.521-2.924 1.564c-.771 1.043-1.156 2.765-1.156 5.168s.385 4.125 1.156 5.168c.816 1.043 1.79 1.564 2.924 1.564zm33.524 28.9c-2.358 0-4.466-.521-6.324-1.564-1.814-1.043-3.242-2.539-4.284-4.488-1.043-1.995-1.564-4.375-1.564-7.14s.521-5.123 1.564-7.072 2.47-3.445 4.284-4.488c1.858-1.088 3.966-1.632 6.324-1.632s4.442.544 6.256 1.632c1.858 1.043 3.309 2.539 4.352 4.488 1.088 1.949 1.632 4.307 1.632 7.072s-.544 5.145-1.632 7.14c-1.043 1.949-2.494 3.445-4.352 4.488-1.814 1.043-3.899 1.564-6.256 1.564zm0-6.46c1.133 0 2.085-.521 2.856-1.564s1.156-2.765 1.156-5.168-.386-4.125-1.156-5.168-1.723-1.564-2.856-1.564c-1.088 0-2.04.521-2.856 1.564-.771 1.043-1.156 2.765-1.156 5.168s.385 4.125 1.156 5.168c.816 1.043 1.768 1.564 2.856 1.564zm50.692-23.324h22.1v10.064h-22.1v-10.064zm.952 18.768h24.888V134h-38.216V86.4h37.332v10.404h-24.004v26.792zM638.729 134l16.932-22.236-.272 7.344-16.252-21.964h14.552l9.112 12.988-5.44.272 9.656-13.26h13.668l-16.252 21.488v-7.072L681.161 134h-14.756l-9.52-13.872 5.44.748L652.737 134h-14.008zm64.159.612c-4.08 0-7.729-.816-10.948-2.448-3.173-1.632-5.666-3.876-7.48-6.732-1.813-2.901-2.72-6.211-2.72-9.928s.907-7.004 2.72-9.86 4.307-5.077 7.48-6.664c3.219-1.632 6.868-2.448 10.948-2.448 4.171 0 7.775.884 10.812 2.652s5.191 4.261 6.46 7.48l-9.996 5.1c-.861-1.723-1.926-2.969-3.196-3.74a7.52 7.52 0 0 0-4.148-1.224c-1.496 0-2.856.34-4.08 1.02s-2.198 1.677-2.924 2.992c-.68 1.269-1.02 2.833-1.02 4.692 0 1.904.34 3.513 1.02 4.828.726 1.315 1.7 2.312 2.924 2.992s2.584 1.02 4.08 1.02a7.84 7.84 0 0 0 4.148-1.156c1.27-.816 2.335-2.085 3.196-3.808l9.996 5.1c-1.269 3.219-3.422 5.712-6.46 7.48s-6.641 2.652-10.812 2.652zm22.004-.612V83.544h12.92V134h-12.92zm36.821.612c-2.992 0-5.69-.589-8.092-1.768-2.358-1.179-4.216-3.015-5.576-5.508-1.315-2.539-1.972-5.735-1.972-9.588V97.144h12.92v18.496c0 2.856.521 4.896 1.564 6.12 1.088 1.224 2.606 1.836 4.556 1.836 1.269 0 2.425-.295 3.468-.884s1.881-1.519 2.516-2.788c.634-1.315.952-2.992.952-5.032V97.144h12.92V134h-12.308v-10.404l2.38 2.924c-1.27 2.72-3.106 4.76-5.508 6.12-2.403 1.315-5.01 1.972-7.82 1.972zm44.974 0c-3.128 0-6.188-.363-9.18-1.088-2.947-.725-5.327-1.632-7.14-2.72l3.876-8.84c1.722 1.043 3.74 1.881 6.052 2.516 2.312.589 4.578.884 6.8.884 2.176 0 3.672-.227 4.488-.68.861-.453 1.292-1.065 1.292-1.836 0-.725-.408-1.247-1.224-1.564-.771-.363-1.814-.635-3.128-.816l-4.216-.612c-1.542-.227-3.106-.521-4.692-.884-1.542-.408-2.97-.997-4.284-1.768-1.27-.816-2.29-1.904-3.06-3.264s-1.156-3.083-1.156-5.168c0-2.357.68-4.443 2.04-6.256 1.405-1.859 3.445-3.309 6.12-4.352 2.674-1.088 5.938-1.632 9.792-1.632a38.52 38.52 0 0 1 7.82.816c2.674.499 4.918 1.269 6.732 2.312l-3.876 8.772c-1.814-1.043-3.627-1.745-5.44-2.108-1.814-.408-3.536-.612-5.168-.612-2.176 0-3.718.249-4.624.748-.862.499-1.292 1.111-1.292 1.836s.385 1.292 1.156 1.7c.77.363 1.79.657 3.06.884l4.284.612a33.2 33.2 0 0 1 4.624.884c1.586.408 3.014 1.02 4.284 1.836a8.48 8.48 0 0 1 3.128 3.196c.77 1.315 1.156 3.015 1.156 5.1 0 2.267-.703 4.307-2.108 6.12-1.36 1.813-3.4 3.264-6.12 4.352-2.675 1.088-6.007 1.632-9.996 1.632zm23.791-.612V97.144h12.92V134h-12.92zm6.46-40.936c-2.357 0-4.261-.657-5.712-1.972s-2.176-2.947-2.176-4.896.725-3.581 2.176-4.896 3.355-1.972 5.712-1.972 4.261.635 5.712 1.904c1.451 1.224 2.176 2.811 2.176 4.76 0 2.04-.725 3.74-2.176 5.1-1.405 1.315-3.309 1.972-5.712 1.972zM862.062 134l-15.164-36.856h13.26l12.104 30.804h-6.664l12.716-30.804h12.308L875.39 134h-13.328zm50.216.612c-4.352 0-8.16-.816-11.424-2.448-3.218-1.677-5.734-3.944-7.548-6.8-1.768-2.901-2.652-6.188-2.652-9.86s.862-6.936 2.584-9.792c1.768-2.901 4.194-5.145 7.276-6.732 3.083-1.632 6.551-2.448 10.404-2.448 3.627 0 6.936.748 9.928 2.244 2.992 1.451 5.372 3.604 7.14 6.46s2.652 6.324 2.652 10.404c0 .453-.022.975-.068 1.564l-.136 1.632h-29.172v-6.8h22.304l-4.896 1.904c.046-1.677-.272-3.128-.952-4.352a6.88 6.88 0 0 0-2.72-2.856c-1.133-.68-2.47-1.02-4.012-1.02s-2.901.34-4.08 1.02c-1.133.68-2.017 1.655-2.652 2.924-.634 1.224-.952 2.675-.952 4.352v1.972c0 1.813.363 3.377 1.088 4.692.771 1.315 1.859 2.335 3.264 3.06 1.406.68 3.083 1.02 5.032 1.02 1.814 0 3.355-.249 4.624-.748 1.315-.544 2.607-1.36 3.876-2.448l6.8 7.072c-1.768 1.949-3.944 3.445-6.528 4.488-2.584.997-5.644 1.496-9.18 1.496zm44.718-.612V86.4h22.508c5.259 0 9.883.975 13.872 2.924s7.094 4.692 9.314 8.228c2.27 3.536 3.4 7.752 3.4 12.648 0 4.851-1.13 9.067-3.4 12.648-2.22 3.536-5.324 6.279-9.314 8.228S984.763 134 979.504 134h-22.508zm13.464-10.744h8.5c2.72 0 5.078-.499 7.072-1.496 2.04-1.043 3.627-2.539 4.76-4.488 1.134-1.995 1.7-4.352 1.7-7.072 0-2.765-.566-5.123-1.7-7.072s-2.72-3.423-4.76-4.42c-1.994-1.043-4.352-1.564-7.072-1.564h-8.5v26.112zm42.1 10.744V97.144h12.92V134h-12.92zm6.46-40.936c-2.35 0-4.26-.657-5.71-1.972s-2.17-2.947-2.17-4.896.72-3.581 2.17-4.896 3.36-1.972 5.71-1.972c2.36 0 4.27.635 5.72 1.904 1.45 1.224 2.17 2.811 2.17 4.76 0 2.04-.72 3.74-2.17 5.1-1.41 1.315-3.31 1.972-5.72 1.972zm28.26 41.548c-3.13 0-6.19-.363-9.18-1.088-2.95-.725-5.33-1.632-7.14-2.72l3.87-8.84c1.73 1.043 3.74 1.881 6.05 2.516 2.32.589 4.58.884 6.8.884 2.18 0 3.68-.227 4.49-.68.86-.453 1.29-1.065 1.29-1.836 0-.725-.4-1.247-1.22-1.564-.77-.363-1.81-.635-3.13-.816l-4.21-.612c-1.54-.227-3.11-.521-4.7-.884-1.54-.408-2.96-.997-4.28-1.768-1.27-.816-2.29-1.904-3.06-3.264s-1.16-3.083-1.16-5.168c0-2.357.68-4.443 2.04-6.256 1.41-1.859 3.45-3.309 6.12-4.352 2.68-1.088 5.94-1.632 9.8-1.632a38.55 38.55 0 0 1 7.82.816c2.67.499 4.92 1.269 6.73 2.312l-3.88 8.772c-1.81-1.043-3.62-1.745-5.44-2.108-1.81-.408-3.53-.612-5.17-.612-2.17 0-3.71.249-4.62.748-.86.499-1.29 1.111-1.29 1.836s.38 1.292 1.15 1.7c.78.363 1.8.657 3.06.884l4.29.612a33.12 33.12 0 0 1 4.62.884c1.59.408 3.02 1.02 4.29 1.836 1.31.771 2.35 1.836 3.12 3.196.78 1.315 1.16 3.015 1.16 5.1 0 2.267-.7 4.307-2.11 6.12-1.36 1.813-3.4 3.264-6.12 4.352-2.67 1.088-6 1.632-9.99 1.632zm42.62 0c-4.08 0-7.73-.816-10.94-2.448-3.18-1.632-5.67-3.876-7.48-6.732-1.82-2.901-2.72-6.211-2.72-9.928s.9-7.004 2.72-9.86c1.81-2.856 4.3-5.077 7.48-6.664 3.21-1.632 6.86-2.448 10.94-2.448 4.17 0 7.78.884 10.82 2.652 3.03 1.768 5.19 4.261 6.46 7.48l-10 5.1c-.86-1.723-1.93-2.969-3.2-3.74a7.51 7.51 0 0 0-4.14-1.224c-1.5 0-2.86.34-4.08 1.02-1.23.68-2.2 1.677-2.93 2.992-.68 1.269-1.02 2.833-1.02 4.692 0 1.904.34 3.513 1.02 4.828.73 1.315 1.7 2.312 2.93 2.992 1.22.68 2.58 1.02 4.08 1.02a7.83 7.83 0 0 0 4.14-1.156c1.27-.816 2.34-2.085 3.2-3.808l10 5.1c-1.27 3.219-3.43 5.712-6.46 7.48-3.04 1.768-6.65 2.652-10.82 2.652zm40.24 0c-4.04 0-7.62-.816-10.75-2.448-3.12-1.632-5.59-3.876-7.41-6.732-1.77-2.901-2.65-6.211-2.65-9.928s.88-7.004 2.65-9.86c1.82-2.856 4.29-5.077 7.41-6.664 3.13-1.632 6.71-2.448 10.75-2.448 4.03 0 7.61.816 10.74 2.448 3.18 1.587 5.65 3.808 7.41 6.664 1.77 2.856 2.66 6.143 2.66 9.86s-.89 7.027-2.66 9.928c-1.76 2.856-4.23 5.1-7.41 6.732-3.13 1.632-6.71 2.448-10.74 2.448zm0-10.268c1.49 0 2.81-.34 3.94-1.02 1.18-.68 2.11-1.677 2.79-2.992.68-1.36 1.02-2.969 1.02-4.828s-.34-3.423-1.02-4.692c-.68-1.315-1.61-2.312-2.79-2.992-1.13-.68-2.45-1.02-3.94-1.02-1.45 0-2.77.34-3.95 1.02-1.13.68-2.06 1.677-2.78 2.992-.68 1.269-1.02 2.833-1.02 4.692s.34 3.468 1.02 4.828c.72 1.315 1.65 2.312 2.78 2.992 1.18.68 2.5 1.02 3.95 1.02zm42.3 10.268c-3 0-5.69-.589-8.1-1.768-2.35-1.179-4.21-3.015-5.57-5.508-1.32-2.539-1.97-5.735-1.97-9.588V97.144h12.92v18.496c0 2.856.52 4.896 1.56 6.12 1.09 1.224 2.61 1.836 4.56 1.836 1.26 0 2.42-.295 3.46-.884 1.05-.589 1.88-1.519 2.52-2.788.63-1.315.95-2.992.95-5.032V97.144h12.92V134h-12.31v-10.404l2.38 2.924c-1.27 2.72-3.1 4.76-5.5 6.12-2.41 1.315-5.01 1.972-7.82 1.972zm55.58-38.08c2.85 0 5.44.589 7.75 1.768 2.31 1.133 4.12 2.901 5.44 5.304 1.36 2.403 2.04 5.508 2.04 9.316V134h-12.92v-18.972c0-2.629-.54-4.533-1.63-5.712-1.05-1.224-2.52-1.836-4.42-1.836-1.36 0-2.61.317-3.74.952-1.14.589-2.02 1.519-2.65 2.788-.64 1.269-.96 2.924-.96 4.964V134h-12.92V97.144h12.31v10.472l-2.38-3.06c1.41-2.675 3.33-4.669 5.78-5.984 2.45-1.36 5.21-2.04 8.3-2.04zm39.8 38.08c-4.72 0-8.39-1.156-11.02-3.468-2.63-2.357-3.94-5.893-3.94-10.608v-31.62h12.92V120.4c0 1.315.36 2.357 1.08 3.128.73.725 1.66 1.088 2.79 1.088 1.54 0 2.86-.385 3.95-1.156l3.19 9.044c-1.09.725-2.42 1.247-4.01 1.564-1.59.363-3.24.544-4.96.544zm-20.34-26.452v-9.656h26.73v9.656h-26.73zM647.256 194.5v-23.4h5.564v23.4h-5.564zm-9.204-9.1v-5.2h23.972v5.2h-23.972zm40.004 16.12c-2.565 0-5.079-.364-7.54-1.092-2.427-.763-4.472-1.803-6.136-3.12l2.912-5.252c1.317 1.075 2.912 1.941 4.784 2.6s3.831.988 5.876.988c2.427 0 4.316-.485 5.668-1.456 1.352-1.005 2.028-2.357 2.028-4.056 0-1.664-.624-2.981-1.872-3.952s-3.259-1.456-6.032-1.456h-3.328v-4.628l10.4-12.376.884 2.548h-19.552V164.6h24.804v4.524l-10.4 12.376-3.536-2.08h2.028c4.472 0 7.817 1.005 10.036 3.016 2.253 1.976 3.38 4.524 3.38 7.644 0 2.045-.52 3.935-1.56 5.668s-2.635 3.137-4.784 4.212c-2.115 1.04-4.801 1.56-8.06 1.56zm35.797-.52v-36.4h26.572v5.668h-19.812V201h-6.76zm6.188-13.936v-5.72h18.148v5.72h-18.148zM746.962 201v-36.4h14.924c4.854 0 8.65 1.144 11.388 3.432 2.774 2.288 4.16 5.46 4.16 9.516 0 2.669-.624 4.975-1.872 6.916-1.248 1.907-3.033 3.38-5.356 4.42-2.288 1.005-5.044 1.508-8.268 1.508h-11.232l3.016-3.068V201h-6.76zm23.816 0l-9.204-13.208h7.228L778.058 201h-7.28zm-17.056-12.948l-3.016-3.224h10.92c2.982 0 5.218-.641 6.708-1.924 1.526-1.283 2.288-3.068 2.288-5.356 0-2.323-.762-4.108-2.288-5.356-1.49-1.248-3.726-1.872-6.708-1.872h-10.92l3.016-3.328v21.06zM784.997 201v-36.4h26.572v5.668h-19.812v25.064h20.54V201h-27.3zm6.24-15.704v-5.564h18.096v5.564h-18.096zM819.833 201v-36.4h26.572v5.668h-19.812v25.064h20.54V201h-27.3zm6.24-15.704v-5.564h18.096v5.564h-18.096zM869.04 201v-36.4h5.564l15.912 26.572h-2.912l15.652-26.572h5.564l.052 36.4h-6.396l-.052-26.364h1.352l-13.312 22.204h-3.016l-13.52-22.204h1.56V201h-6.448zm61.52.364c-2.842 0-5.373-.607-7.592-1.82-2.218-1.248-3.969-2.947-5.252-5.096s-1.924-4.593-1.924-7.332c0-2.773.642-5.217 1.924-7.332a13.61 13.61 0 0 1 5.252-5.044c2.219-1.213 4.75-1.82 7.592-1.82 2.878 0 5.426.607 7.644 1.82 2.254 1.213 4.004 2.877 5.252 4.992 1.283 2.115 1.924 4.576 1.924 7.384 0 2.739-.641 5.183-1.924 7.332-1.248 2.149-2.998 3.848-5.252 5.096-2.218 1.213-4.766 1.82-7.644 1.82zm0-5.564c1.595 0 3.016-.347 4.264-1.04s2.219-1.699 2.912-3.016c.728-1.317 1.092-2.86 1.092-4.628 0-1.803-.364-3.345-1.092-4.628-.693-1.317-1.664-2.323-2.912-3.016s-2.652-1.04-4.212-1.04c-1.594 0-3.016.347-4.264 1.04-1.213.693-2.184 1.699-2.912 3.016-.728 1.283-1.092 2.825-1.092 4.628 0 1.768.364 3.311 1.092 4.628s1.699 2.323 2.912 3.016c1.248.693 2.652 1.04 4.212 1.04zm21.036 5.2v-27.768h6.188v7.488l-1.092-2.288a9.72 9.72 0 0 1 4.212-4.056c1.872-.971 4.021-1.456 6.448-1.456 2.219 0 4.195.433 5.928 1.3 1.768.867 3.155 2.201 4.16 4.004 1.005 1.768 1.508 4.056 1.508 6.864V201h-6.5v-15.08c0-2.461-.589-4.299-1.768-5.512-1.144-1.213-2.756-1.82-4.836-1.82-1.525 0-2.877.312-4.056.936s-2.097 1.56-2.756 2.808c-.624 1.213-.936 2.756-.936 4.628V201h-6.5zm46.05.364c-3.051 0-5.408-.78-7.072-2.34-1.664-1.595-2.496-3.935-2.496-7.02v-24.908h6.5v24.752c0 1.317.329 2.34.988 3.068.693.728 1.646 1.092 2.86 1.092 1.456 0 2.674-.381 3.644-1.144l1.82 4.628c-.77.624-1.7 1.092-2.81 1.404s-2.256.468-3.434.468zm-14.144-22.932v-5.2h18.508v5.2h-18.508zM1009.23 201v-38.584h6.5v18.304l-1.4-2.288c.97-1.768 2.37-3.12 4.21-4.056 1.87-.971 4.02-1.456 6.45-1.456 2.22 0 4.19.433 5.93 1.3 1.76.867 3.15 2.201 4.16 4.004 1 1.768 1.5 4.056 1.5 6.864V201h-6.5v-15.08c0-2.461-.58-4.299-1.76-5.512-1.15-1.213-2.76-1.82-4.84-1.82-1.52 0-2.88.312-4.06.936-1.17.624-2.09 1.56-2.75 2.808-.63 1.213-.94 2.756-.94 4.628V201h-6.5zm44.18.364a25.3 25.3 0 0 1-6.71-.884c-2.11-.624-3.79-1.369-5.04-2.236l2.49-4.94c1.25.797 2.74 1.456 4.48 1.976 1.73.52 3.46.78 5.2.78 2.04 0 3.52-.277 4.42-.832.93-.555 1.4-1.3 1.4-2.236 0-.763-.31-1.335-.94-1.716-.62-.416-1.43-.728-2.44-.936-1-.208-2.13-.399-3.38-.572-1.21-.173-2.44-.399-3.69-.676-1.21-.312-2.32-.745-3.33-1.3-1-.589-1.82-1.369-2.44-2.34-.63-.971-.94-2.253-.94-3.848 0-1.768.5-3.293 1.51-4.576 1-1.317 2.41-2.323 4.21-3.016 1.84-.728 4-1.092 6.5-1.092 1.87 0 3.76.208 5.67.624s3.48 1.005 4.73 1.768l-2.5 4.94c-1.31-.797-2.65-1.335-4-1.612a17.08 17.08 0 0 0-3.95-.468c-1.98 0-3.45.295-4.42.884-.94.589-1.41 1.335-1.41 2.236 0 .832.32 1.456.94 1.872s1.44.745 2.44.988c1.01.243 2.12.451 3.33.624a26.48 26.48 0 0 1 3.69.676c1.22.312 2.33.745 3.33 1.3 1.04.52 1.87 1.265 2.5 2.236.62.971.93 2.236.93 3.796 0 1.733-.52 3.241-1.56 4.524-1 1.283-2.44 2.288-4.31 3.016-1.87.693-4.11 1.04-6.71 1.04z"/></g><rect x="1359" y="24" width="382.633" height="128.397" rx="15.106" fill="#ff7800"/><path d="M1422.87 104.226c-2.38 0-4.59-.381-6.64-1.144-2.03-.792-3.79-1.906-5.28-3.344-1.5-1.437-2.67-3.124-3.52-5.06-.83-1.936-1.24-4.063-1.24-6.38s.41-4.444 1.24-6.38c.85-1.936 2.02-3.623 3.52-5.06 1.52-1.437 3.3-2.537 5.32-3.3 2.02-.792 4.24-1.188 6.64-1.188 2.67 0 5.08.469 7.22 1.408 2.17.909 3.99 2.259 5.46 4.048l-4.58 4.224c-1.06-1.203-2.23-2.097-3.52-2.684-1.29-.616-2.7-.924-4.22-.924-1.44 0-2.76.235-3.96.704a8.93 8.93 0 0 0-3.13 2.024 9.55 9.55 0 0 0-2.07 3.124c-.47 1.203-.7 2.537-.7 4.004s.23 2.801.7 4.004c.5 1.203 1.19 2.244 2.07 3.124a8.93 8.93 0 0 0 3.13 2.024c1.2.469 2.52.704 3.96.704 1.52 0 2.93-.293 4.22-.88 1.29-.616 2.46-1.54 3.52-2.772l4.58 4.224c-1.47 1.79-3.29 3.154-5.46 4.092-2.14.939-4.56 1.408-7.26 1.408zm17.97-.528v-30.8h7.13V97.89h15.44v5.808h-22.57zm23.12 0l13.73-30.8h7.04l13.77 30.8h-7.48l-11.27-27.192h2.82l-11.31 27.192h-7.3zm6.86-6.6l1.89-5.412h15.84l1.94 5.412h-19.67zm31.31 6.6v-30.8h7.13v30.8h-7.13zm14.88 0v-30.8h5.9l13.11 21.736h-3.13l12.9-21.736h5.85l.09 30.8h-6.69l-.05-20.548h1.24l-10.3 17.292h-3.21L1522.2 83.15h1.5v20.548h-6.69zm55.36 0v-30.8h14c3.34 0 6.29.645 8.84 1.936 2.55 1.261 4.55 3.036 5.98 5.324 1.44 2.288 2.16 5.001 2.16 8.14 0 3.109-.72 5.823-2.16 8.14-1.43 2.288-3.43 4.078-5.98 5.368-2.55 1.262-5.5 1.892-8.84 1.892h-14zm7.13-5.852h6.51c2.06 0 3.83-.381 5.33-1.144 1.52-.792 2.7-1.907 3.52-3.344.85-1.437 1.27-3.124 1.27-5.06 0-1.965-.42-3.652-1.27-5.06-.82-1.437-2-2.537-3.52-3.3-1.5-.792-3.27-1.188-5.33-1.188h-6.51v19.096zm36.22-12.54h14.83v5.544h-14.83v-5.544zm.53 12.672h16.76v5.72h-23.84v-30.8h23.27v5.72h-16.19v19.36zm18.83 5.72l13.73-30.8h7.04l13.77 30.8h-7.48l-11.27-27.192h2.82l-11.31 27.192h-7.3zm6.86-6.6l1.89-5.412h15.84l1.94 5.412h-19.67zm31.31 6.6v-30.8h7.13V97.89h15.45v5.808h-22.58zm-309.07 93.699v-26.6h4.94v22.42h13.91v4.18h-18.85zm21.99 0v-26.6h4.94v26.6h-4.94zm11.37 0v-26.6h4.07l11.63 19.418h-2.13l11.44-19.418h4.06l.04 26.6h-4.67l-.04-19.266h.99l-9.73 16.226h-2.21l-9.88-16.226h1.14v19.266h-4.71zm35.54 0v-26.6h4.94v26.6h-4.94zm16.77 0v-22.42h-8.82v-4.18h22.57v4.18h-8.81v22.42h-4.94zm21.26-15.542h13.22v4.066h-13.22v-4.066zm.38 11.4h15.01v4.142h-19.95v-26.6h19.42v4.142h-14.48v18.316zm19.76 4.142v-26.6h11.62c2.89 0 5.43.557 7.6 1.672 2.18 1.115 3.88 2.66 5.1 4.636 1.21 1.976 1.82 4.307 1.82 6.992 0 2.66-.61 4.991-1.82 6.992-1.22 1.976-2.92 3.521-5.1 4.636-2.17 1.115-4.71 1.672-7.6 1.672h-11.62zm4.94-4.18h6.46c2 0 3.72-.38 5.16-1.14 1.47-.76 2.6-1.824 3.39-3.192.81-1.368 1.21-2.964 1.21-4.788 0-1.849-.4-3.445-1.21-4.788-.79-1.368-1.92-2.432-3.39-3.192-1.44-.76-3.16-1.14-5.16-1.14h-6.46v18.24zm24.39-4.408v-3.952h10.45v3.952h-10.45zm19.41 8.588v-22.42h-8.82v-4.18h22.57v4.18h-8.81v22.42h-4.94zm16.7 0v-26.6h4.94v26.6h-4.94zm11.38 0v-26.6h4.06l11.63 19.418h-2.13l11.44-19.418h4.07l.03 26.6h-4.67l-.04-19.266h.99l-9.73 16.226h-2.2l-9.88-16.226h1.14v19.266h-4.71zm40.09-15.542h13.22v4.066h-13.22v-4.066zm.38 11.4h15.01v4.142h-19.95v-26.6h19.42v4.142h-14.48v18.316zm41.96 4.522c-2.08 0-3.99-.342-5.74-1.026-1.74-.684-3.26-1.634-4.56-2.85-1.29-1.241-2.29-2.685-3-4.332-.71-1.672-1.06-3.496-1.06-5.472s.35-3.787 1.06-5.434c.71-1.672 1.71-3.116 3-4.332 1.3-1.241 2.82-2.204 4.56-2.888 1.75-.684 3.65-1.026 5.7-1.026 2.08 0 3.98.342 5.7 1.026 1.75.684 3.27 1.647 4.56 2.888 1.3 1.216 2.3 2.66 3.01 4.332.7 1.647 1.06 3.458 1.06 5.434s-.36 3.8-1.06 5.472c-.71 1.672-1.71 3.116-3.01 4.332-1.29 1.216-2.81 2.166-4.56 2.85-1.72.684-3.61 1.026-5.66 1.026zm-.04-4.332c1.35 0 2.59-.228 3.73-.684s2.13-1.102 2.96-1.938c.84-.861 1.48-1.849 1.94-2.964.48-1.14.72-2.394.72-3.762s-.24-2.609-.72-3.724c-.46-1.14-1.1-2.128-1.94-2.964a8.39 8.39 0 0 0-2.96-1.976c-1.14-.456-2.38-.684-3.73-.684-1.34 0-2.58.228-3.72.684-1.12.456-2.1 1.115-2.96 1.976-.84.836-1.5 1.824-1.98 2.964-.46 1.115-.68 2.356-.68 3.724 0 1.343.22 2.584.68 3.724.48 1.14 1.14 2.141 1.98 3.002.83.836 1.82 1.482 2.96 1.938s2.38.684 3.72.684zm18.81 3.952v-26.6h4.06l16.68 20.482H1688v-20.482h4.9v26.6h-4.06l-16.69-20.482h2.02v20.482h-4.9zm30 0v-26.6h4.94v22.42h13.91v4.18h-18.85zm25.74 0v-10.526l1.1 3.04-11.55-19.114h5.28l9.27 15.39h-2.96l9.35-15.39h4.86l-11.55 19.114 1.14-3.04v10.526h-4.94z" fill="#fff"/><path d="M384 37v164" stroke="#fff" stroke-opacity=".2" stroke-width="3"/><defs><linearGradient id="A" x1="891" y1="0" x2="891" y2="230" gradientUnits="userSpaceOnUse"><stop stop-color="#26315a"/><stop offset="1" stop-color="#1a223f"/></linearGradient></defs></svg>