<svg xmlns="http://www.w3.org/2000/svg" width="160" height="235" fill="none"><path fill="url(#A)" d="M0 0h160v235H0z"/><g clip-path="url(#B)"><g fill="#fff"><path d="M49.577 32.193h-3.228l-4.332-4.959v4.959h-2.203v-6.818h3.268l4.298 4.997v-4.997h2.198v6.818zm9.065-5.159h-5.689v1.032h5.357v1.432h-5.357v1.048h5.774v1.648H50.75v-6.818h7.892v1.659zm5.288 5.159h-2.524L59.1 25.376h2.198l1.488 4.846 1.848-4.846h2.026l1.745 4.846 1.591-4.846h2.198l-2.415 6.818h-2.484l-1.671-4.7-1.694 4.7zm8.481-2.269h2.181v.13a.56.56 0 0 0 .024.294c.034.094.093.179.17.247a1.67 1.67 0 0 0 .836.135h2.77a.99.99 0 0 0 .572-.13.54.54 0 0 0 .14-.197.51.51 0 0 0 .037-.235c.008-.083-.006-.166-.041-.243a.5.5 0 0 0-.159-.195 1.99 1.99 0 0 0-.864-.178l-3.434-.076a2.75 2.75 0 0 1-1.763-.465 2.12 2.12 0 0 1-.458-1.567 3.07 3.07 0 0 1 .126-.967c.069-.238.201-.455.383-.632a1.81 1.81 0 0 1 .824-.4 8.04 8.04 0 0 1 1.66-.119h3.365c.624-.053 1.25.09 1.78.405a1.72 1.72 0 0 1 .456.638 1.64 1.64 0 0 1 .117.761v.135.238H79.01a.65.65 0 0 0-.037-.271.68.68 0 0 0-.146-.236.75.75 0 0 0-.257-.146.78.78 0 0 0-.298-.037h-2.541a1.91 1.91 0 0 0-.841.119.45.45 0 0 0-.165.181.42.42 0 0 0-.041.235.46.46 0 0 0 .039.233.49.49 0 0 0 .15.188 1.4 1.4 0 0 0 .675.167l3.628.054c.636-.038 1.262.155 1.751.54a2.32 2.32 0 0 1 .504 1.686c.016.368-.049.736-.189 1.081-.135.274-.352.505-.624.664a2.22 2.22 0 0 1-.79.249 10.74 10.74 0 0 1-1.448.076h-2.97c-1.207 0-2.014-.13-2.421-.384a1.6 1.6 0 0 1-.501-.638c-.107-.25-.145-.521-.111-.788v-.54m12.258 2.257h-2.203v-6.818h2.203v2.501h4.515v-2.501h2.221v6.818H89.15v-2.669h-4.515v2.669zm11.378.081c-.62.014-1.24-.022-1.854-.108-.344-.052-.671-.178-.956-.367a1.69 1.69 0 0 1-.572-.767c-.135-.407-.197-.832-.183-1.259v-1.88a4.09 4.09 0 0 1 .183-1.356 1.67 1.67 0 0 1 .572-.789 2.37 2.37 0 0 1 .967-.367 10.95 10.95 0 0 1 1.831-.108h2.598a11.06 11.06 0 0 1 1.837.108 2.33 2.33 0 0 1 .968.367 1.63 1.63 0 0 1 .572.783c.138.414.202.847.189 1.28v1.902c.014.432-.049.863-.189 1.275a1.69 1.69 0 0 1-.572.789 2.32 2.32 0 0 1-.962.367c-.61.085-1.226.121-1.843.108l-2.587.022zm.572-1.702h1.402c.535.053 1.075-.045 1.551-.281a1.21 1.21 0 0 0 .32-.47 1.15 1.15 0 0 0 .063-.556v-.967c.025-.187.003-.378-.064-.556s-.176-.339-.32-.471a2.93 2.93 0 0 0-1.551-.275h-1.414a2.92 2.92 0 0 0-1.562.275 1.33 1.33 0 0 0-.316.5 1.25 1.25 0 0 0-.056.58v.951a1.13 1.13 0 0 0 .069.55 1.19 1.19 0 0 0 .326.461 2.95 2.95 0 0 0 1.551.275m6.605-.664h2.175v.13a.57.57 0 0 0 .027.294c.035.094.095.179.174.246a1.67 1.67 0 0 0 .835.135h2.776a.99.99 0 0 0 .572-.13c.062-.055.11-.122.14-.197a.5.5 0 0 0 .037-.235.46.46 0 0 0-.042-.244c-.036-.077-.092-.143-.164-.193a1.94 1.94 0 0 0-.864-.178l-3.462-.076a2.73 2.73 0 0 1-1.757-.465 2.12 2.12 0 0 1-.458-1.567c-.008-.326.032-.652.12-.967a1.47 1.47 0 0 1 .389-.632c.233-.2.517-.338.824-.4.547-.097 1.104-.137 1.66-.119h3.365c.635-.051 1.269.099 1.803.427a1.72 1.72 0 0 1 .456.638 1.63 1.63 0 0 1 .116.761c.003.045.003.09 0 .135v.238h-2.163a.63.63 0 0 0-.035-.272.66.66 0 0 0-.148-.236.75.75 0 0 0-.254-.136c-.093-.029-.192-.04-.29-.032h-2.541a1.86 1.86 0 0 0-.835.119.44.44 0 0 0-.165.181c-.036.074-.051.155-.041.235a.46.46 0 0 0 .037.232.5.5 0 0 0 .146.19 1.44 1.44 0 0 0 .692.086l3.629.054a2.57 2.57 0 0 1 1.745.54c.39.481.572 1.083.509 1.686a2.57 2.57 0 0 1-.188 1.08 1.62 1.62 0 0 1-.63.665 2.22 2.22 0 0 1-.79.249 10.59 10.59 0 0 1-1.442.076h-2.942c-1.207 0-2.008-.13-2.42-.383a1.61 1.61 0 0 1-.499-.639c-.107-.249-.143-.52-.108-.787v-.54m14.742 2.3h-2.203v-5.148h-3.016v-1.669h8.241v1.669h-3.022v5.148zm6.038-6.817h-2.203v6.818h2.203v-6.818zm11.09 6.817h-3.233l-4.327-4.959v4.959h-2.203v-6.818h3.262l4.304 4.997v-4.997h2.197v6.818zm8.013-4.359c.015-.122-.004-.247-.056-.36s-.136-.211-.242-.283c-.433-.151-.896-.21-1.356-.173h-1.288a2.66 2.66 0 0 0-1.448.254c-.126.151-.219.325-.273.51s-.068.38-.042.57v.951a1.22 1.22 0 0 0 .06.542 1.27 1.27 0 0 0 .295.468 2.53 2.53 0 0 0 1.42.275h1.276a3.56 3.56 0 0 0 1.305-.162.61.61 0 0 0 .266-.219c.064-.096.097-.208.094-.321a1.41 1.41 0 0 0 0-.184h0-2.598v-1.378h4.893v2.237a1.37 1.37 0 0 1-.168.787 1.48 1.48 0 0 1-.587.58 6.03 6.03 0 0 1-2.627.405h-2.478a8.84 8.84 0 0 1-1.666-.113c-.331-.066-.643-.199-.915-.389a1.93 1.93 0 0 1-.635-.8 3.15 3.15 0 0 1-.195-1.199v-1.939c0-.978.24-1.658.732-2.042s1.38-.578 2.673-.578h2.461a11.56 11.56 0 0 1 1.763.097 2.16 2.16 0 0 1 .887.34c.233.17.409.401.503.664a2.93 2.93 0 0 1 .166 1.081v.232.151l-2.22-.005zm-106.935.669c-.002 2.785-1.168 5.454-3.243 7.423S27.996 39 25.063 39s-5.746-1.106-7.82-3.074-3.241-4.638-3.243-7.423 1.165-5.457 3.24-7.427S22.129 18 25.063 18s5.748 1.107 7.823 3.076 3.24 4.641 3.24 7.427"/></g><path d="M27.784 26.483h2.55l-5.25-4.983-5.25 4.983h2.549v4.033h-2.549l5.25 4.983 5.25-4.983h-2.55v-4.033z" fill="#1c3f73"/></g><g fill="#fff"><path d="M26.847 70.144c-.664 0-1.28-.108-1.848-.324a4.44 4.44 0 0 1-1.464-.912 4.28 4.28 0 0 1-.96-1.38c-.224-.528-.336-1.104-.336-1.728s.112-1.2.336-1.728c.232-.528.556-.988.972-1.38a4.44 4.44 0 0 1 1.464-.912c.56-.216 1.168-.324 1.824-.324.664 0 1.272.108 1.824.324.56.216 1.044.52 1.452.912.416.392.74.852.972 1.38.232.52.348 1.096.348 1.728 0 .624-.116 1.204-.348 1.74-.232.528-.556.988-.972 1.38-.408.384-.892.684-1.452.9a4.93 4.93 0 0 1-1.812.324zm-.012-1.656c.376 0 .72-.064 1.032-.192.32-.128.6-.312.84-.552a2.45 2.45 0 0 0 .552-.852c.136-.328.204-.692.204-1.092s-.068-.764-.204-1.092a2.45 2.45 0 0 0-.552-.852 2.35 2.35 0 0 0-.828-.552c-.32-.128-.668-.192-1.044-.192s-.724.064-1.044.192c-.312.128-.588.312-.828.552s-.428.524-.564.852a2.98 2.98 0 0 0-.192 1.092c0 .392.064.756.192 1.092a2.7 2.7 0 0 0 .552.852c.24.24.52.424.84.552s.668.192 1.044.192zm7.737-3.108h4.032v1.56h-4.032v-1.56zm.144 4.62h-1.944v-8.4h6.348v1.56h-4.404V70zm7.4-4.62h4.032v1.56h-4.032v-1.56zM42.26 70h-1.944v-8.4h6.348v1.56H42.26V70zm5.6 0v-8.4h1.944V70H47.86zm7.838.144c-.648 0-1.252-.104-1.812-.312a4.33 4.33 0 0 1-1.44-.912 4.28 4.28 0 0 1-.96-1.38 4.41 4.41 0 0 1-.336-1.74 4.41 4.41 0 0 1 .336-1.74 4.28 4.28 0 0 1 .96-1.38 4.31 4.31 0 0 1 1.452-.9 4.93 4.93 0 0 1 1.812-.324c.728 0 1.384.128 1.968.384.592.248 1.088.616 1.488 1.104l-1.248 1.152c-.288-.328-.608-.572-.96-.732a2.64 2.64 0 0 0-1.152-.252c-.392 0-.752.064-1.08.192a2.45 2.45 0 0 0-.852.552c-.24.24-.428.524-.564.852a2.98 2.98 0 0 0-.192 1.092 2.98 2.98 0 0 0 .192 1.092c.136.328.324.612.564.852a2.45 2.45 0 0 0 .852.552c.328.128.688.192 1.08.192a2.75 2.75 0 0 0 1.152-.24 2.93 2.93 0 0 0 .96-.756l1.248 1.152a3.89 3.89 0 0 1-1.488 1.116c-.584.256-1.244.384-1.98.384zM60.358 70v-8.4h1.944V70h-1.944zm2.714 0l3.744-8.4h1.92l3.756 8.4h-2.04l-3.072-7.416h.768L65.064 70h-1.992zm1.872-1.8l.516-1.476h4.32l.528 1.476h-5.364zm8.299 1.8v-8.4h1.944v6.816h4.212V70h-6.156zm13.161.144a7 7 0 0 1-1.932-.264c-.616-.184-1.112-.42-1.488-.708l.66-1.464c.36.256.784.468 1.272.636a4.86 4.86 0 0 0 1.5.24c.384 0 .692-.036.924-.108.24-.08.416-.188.528-.324s.168-.292.168-.468c0-.224-.088-.4-.264-.528-.176-.136-.408-.244-.696-.324a10.5 10.5 0 0 0-.96-.24l-1.044-.288c-.344-.112-.66-.256-.948-.432a2.18 2.18 0 0 1-.708-.696c-.176-.288-.264-.656-.264-1.104a2.34 2.34 0 0 1 .384-1.308c.264-.4.656-.716 1.176-.948.528-.24 1.188-.36 1.98-.36a6.41 6.41 0 0 1 1.56.192c.512.12.964.304 1.356.552l-.6 1.476a4.91 4.91 0 0 0-1.176-.492 4.18 4.18 0 0 0-1.152-.168c-.376 0-.684.044-.924.132s-.412.204-.516.348c-.104.136-.156.296-.156.48 0 .216.088.392.264.528.176.128.408.232.696.312l.948.24 1.044.276a4.01 4.01 0 0 1 .96.42 2.07 2.07 0 0 1 .696.696c.184.288.276.652.276 1.092a2.27 2.27 0 0 1-.396 1.296c-.264.392-.66.708-1.188.948-.52.24-1.18.36-1.98.36zM90.072 70l3.744-8.4h1.92l3.756 8.4h-2.04l-3.072-7.416h.768L92.064 70h-1.992zm1.872-1.8l.516-1.476h4.32l.528 1.476h-5.364zm8.299 1.8v-8.4h4.104c1.056 0 1.848.2 2.376.6a1.88 1.88 0 0 1 .804 1.584c0 .44-.108.824-.324 1.152-.216.32-.512.568-.888.744s-.808.264-1.296.264l.228-.492c.528 0 .996.088 1.404.264.408.168.724.42.948.756.232.336.348.748.348 1.236 0 .72-.284 1.284-.852 1.692-.568.4-1.404.6-2.508.6h-4.344zm1.932-1.464h2.268c.504 0 .884-.08 1.14-.24.264-.168.396-.432.396-.792 0-.352-.132-.612-.396-.78-.256-.176-.636-.264-1.14-.264h-2.412v-1.416h2.076c.472 0 .832-.08 1.08-.24.256-.168.384-.42.384-.756 0-.328-.128-.572-.384-.732-.248-.168-.608-.252-1.08-.252h-1.932v5.472zm10.916-5.088c.512 0 .968.104 1.368.312.408.2.728.512.96.936.232.416.348.952.348 1.608V70h-1.872v-3.408c0-.52-.116-.904-.348-1.152-.224-.248-.544-.372-.96-.372a1.68 1.68 0 0 0-.804.192c-.232.12-.416.308-.552.564-.128.256-.192.584-.192.984V70h-1.872v-6.456h1.788v1.788l-.336-.54a2.39 2.39 0 0 1 .996-.996 3.07 3.07 0 0 1 1.476-.348zM116.9 70v-1.128l3.816-4.512.324.624h-4.056v-1.44h5.568v1.128l-3.816 4.512-.336-.624h4.26V70h-5.76zm10.656.096c-.568 0-1.056-.12-1.464-.36s-.72-.604-.936-1.092c-.216-.496-.324-1.12-.324-1.872 0-.76.112-1.384.336-1.872.232-.488.552-.852.96-1.092s.884-.36 1.428-.36c.608 0 1.152.136 1.632.408.488.272.872.656 1.152 1.152.288.496.432 1.084.432 1.764 0 .672-.144 1.256-.432 1.752a3.04 3.04 0 0 1-1.152 1.164c-.48.272-1.024.408-1.632.408zM123.74 70v-8.904h1.872v3.756l-.12 1.908.036 1.92V70h-1.788zm3.492-1.44c.312 0 .588-.072.828-.216.248-.144.444-.348.588-.612.152-.272.228-.592.228-.96 0-.376-.076-.696-.228-.96-.144-.264-.34-.468-.588-.612-.24-.144-.516-.216-.828-.216s-.592.072-.84.216-.444.348-.588.612-.216.584-.216.96c0 .368.072.688.216.96.144.264.34.468.588.612s.528.216.84.216zm7.445 1.536c-.608 0-1.156-.136-1.644-.408-.488-.28-.876-.668-1.164-1.164-.28-.496-.42-1.08-.42-1.752 0-.68.14-1.268.42-1.764.288-.496.676-.88 1.164-1.152s1.036-.408 1.644-.408c.544 0 1.02.12 1.428.36s.724.604.948 1.092.336 1.112.336 1.872c0 .752-.108 1.376-.324 1.872-.216.488-.528.852-.936 1.092-.4.24-.884.36-1.452.36zm.324-1.536a1.62 1.62 0 0 0 .828-.216c.248-.144.444-.348.588-.612.152-.272.228-.592.228-.96 0-.376-.076-.696-.228-.96-.144-.264-.34-.468-.588-.612a1.62 1.62 0 0 0-.828-.216c-.312 0-.592.072-.84.216s-.448.348-.6.612c-.144.264-.216.584-.216.96 0 .368.072.688.216.96.152.264.352.468.6.612s.528.216.84.216zm1.692 1.44v-1.32l.036-1.92-.12-1.908v-3.756h1.872V70h-1.788zM64.652 84.144c-.664 0-1.28-.108-1.848-.324a4.44 4.44 0 0 1-1.464-.912 4.28 4.28 0 0 1-.96-1.38c-.224-.528-.336-1.104-.336-1.728s.112-1.2.336-1.728c.232-.528.556-.988.972-1.38a4.44 4.44 0 0 1 1.464-.912c.56-.216 1.168-.324 1.824-.324.664 0 1.272.108 1.824.324.56.216 1.044.52 1.452.912.416.392.74.852.972 1.38.232.52.348 1.096.348 1.728 0 .624-.116 1.204-.348 1.74-.232.528-.556.988-.972 1.38-.408.384-.892.684-1.452.9a4.93 4.93 0 0 1-1.812.324zm-.012-1.656c.376 0 .72-.064 1.032-.192.32-.128.6-.312.84-.552a2.45 2.45 0 0 0 .552-.852c.136-.328.204-.692.204-1.092s-.068-.764-.204-1.092a2.45 2.45 0 0 0-.552-.852 2.35 2.35 0 0 0-.828-.552c-.32-.128-.668-.192-1.044-.192s-.724.064-1.044.192c-.312.128-.588.312-.828.552s-.428.524-.564.852a2.98 2.98 0 0 0-.192 1.092c0 .392.064.756.192 1.092a2.7 2.7 0 0 0 .552.852c.24.24.52.424.84.552s.668.192 1.044.192zm7.737-3.108h4.032v1.56h-4.032v-1.56zm.144 4.62h-1.944v-8.4h6.348v1.56h-4.404V84zm7.4-4.62h4.032v1.56h-4.032v-1.56zm.144 4.62h-1.944v-8.4h6.348v1.56h-4.404V84zm7.388-5.016h4.044v1.512h-4.044v-1.512zm.144 3.456h4.572V84h-6.504v-8.4h6.348v1.56h-4.416v5.28zM93.596 84v-8.4h3.636c.752 0 1.4.124 1.944.372.544.24.964.588 1.26 1.044s.444 1 .444 1.632c0 .624-.148 1.164-.444 1.62-.296.448-.716.792-1.26 1.032s-1.192.36-1.944.36h-2.556l.864-.852V84h-1.944zm5.34 0l-2.1-3.048h2.076L101.036 84h-2.1zm-3.396-2.976l-.864-.912h2.448c.6 0 1.048-.128 1.344-.384.296-.264.444-.624.444-1.08 0-.464-.148-.824-.444-1.08s-.744-.384-1.344-.384h-2.448l.864-.924v4.764z"/><path d="M15.775 108l4.914-11.286.954 1.512h-6.39l1.458-1.638v3.582h-3.042V95.4h10.44v2.232L19.663 108h-3.888zm14.675.252c-1.08 0-2.04-.258-2.88-.774-.828-.516-1.482-1.26-1.962-2.232s-.72-2.154-.72-3.546.24-2.574.72-3.546 1.134-1.716 1.962-2.232c.84-.516 1.8-.774 2.88-.774 1.068 0 2.016.258 2.844.774.84.516 1.5 1.26 1.98 2.232s.72 2.154.72 3.546-.24 2.574-.72 3.546-1.14 1.716-1.98 2.232c-.828.516-1.776.774-2.844.774zm0-2.916c.384 0 .72-.12 1.008-.36.3-.24.534-.624.702-1.152.168-.54.252-1.248.252-2.124 0-.888-.084-1.596-.252-2.124s-.402-.912-.702-1.152c-.288-.24-.624-.36-1.008-.36s-.726.12-1.026.36c-.288.24-.522.624-.702 1.152-.168.528-.252 1.236-.252 2.124 0 .876.084 1.584.252 2.124.18.528.414.912.702 1.152.3.24.642.36 1.026.36zM39.065 108l8.604-12.6h2.592L41.657 108h-2.592zm1.152-5.778c-.612 0-1.164-.138-1.656-.414s-.876-.672-1.152-1.188c-.276-.528-.414-1.158-.414-1.89s.138-1.356.414-1.872.66-.912 1.152-1.188c.492-.288 1.044-.432 1.656-.432.624 0 1.176.144 1.656.432.492.276.876.672 1.152 1.188.288.516.432 1.14.432 1.872 0 .72-.144 1.344-.432 1.872-.276.528-.66.93-1.152 1.206-.48.276-1.032.414-1.656.414zm.018-1.71c.3 0 .546-.138.738-.414.204-.276.306-.732.306-1.368s-.102-1.092-.306-1.368c-.192-.276-.438-.414-.738-.414s-.558.138-.774.414c-.204.276-.306.732-.306 1.368s.102 1.092.306 1.368c.216.276.474.414.774.414zm8.874 7.65c-.624 0-1.182-.138-1.674-.414-.48-.276-.858-.672-1.134-1.188-.276-.528-.414-1.158-.414-1.89s.138-1.356.414-1.872.654-.912 1.134-1.188c.492-.288 1.05-.432 1.674-.432s1.176.144 1.656.432c.492.276.876.672 1.152 1.188.288.516.432 1.14.432 1.872s-.144 1.362-.432 1.89c-.276.516-.66.912-1.152 1.188-.48.276-1.032.414-1.656.414zm0-1.71c.3 0 .552-.138.756-.414s.306-.732.306-1.368-.102-1.092-.306-1.368-.456-.414-.756-.414c-.288 0-.54.138-.756.414-.204.276-.306.732-.306 1.368s.102 1.092.306 1.368c.216.276.468.414.756.414zm13.419-6.174h5.85v2.664h-5.85v-2.664zm.252 4.968h6.588V108H59.251V95.4h9.882v2.754h-6.354v7.092zM69.996 108l4.482-5.886-.072 1.944-4.302-5.814h3.852l2.412 3.438-1.44.072 2.556-3.51h3.618l-4.302 5.688v-1.872l4.428 5.94h-3.906l-2.52-3.672 1.44.198L73.704 108h-3.708zm16.983.162c-1.08 0-2.046-.216-2.898-.648a5 5 0 0 1-1.98-1.782c-.48-.768-.72-1.644-.72-2.628s.24-1.854.72-2.61 1.14-1.344 1.98-1.764c.852-.432 1.818-.648 2.898-.648 1.104 0 2.058.234 2.862.702s1.374 1.128 1.71 1.98l-2.646 1.35c-.228-.456-.51-.786-.846-.99a1.99 1.99 0 0 0-1.098-.324c-.396 0-.756.09-1.08.27s-.582.444-.774.792c-.18.336-.27.75-.27 1.242 0 .504.09.93.27 1.278.192.348.45.612.774.792s.684.27 1.08.27.762-.102 1.098-.306c.336-.216.618-.552.846-1.008l2.646 1.35c-.336.852-.906 1.512-1.71 1.98s-1.758.702-2.862.702zm5.825-.162V94.644h3.42V108h-3.42zm9.747.162c-.792 0-1.506-.156-2.142-.468-.624-.312-1.116-.798-1.476-1.458-.348-.672-.522-1.518-.522-2.538v-5.454h3.42v4.896c0 .756.138 1.296.414 1.62.288.324.69.486 1.206.486.336 0 .642-.078.918-.234s.498-.402.666-.738c.168-.348.252-.792.252-1.332v-4.698h3.42V108h-3.258v-2.754l.63.774c-.336.72-.822 1.26-1.458 1.62-.636.348-1.326.522-2.07.522zm11.905 0c-.828 0-1.638-.096-2.43-.288-.78-.192-1.41-.432-1.89-.72l1.026-2.34c.456.276.99.498 1.602.666a7.27 7.27 0 0 0 1.8.234c.576 0 .972-.06 1.188-.18.228-.12.342-.282.342-.486 0-.192-.108-.33-.324-.414-.204-.096-.48-.168-.828-.216l-1.116-.162-1.242-.234c-.408-.108-.786-.264-1.134-.468-.336-.216-.606-.504-.81-.864s-.306-.816-.306-1.368c0-.624.18-1.176.54-1.656.372-.492.912-.876 1.62-1.152.708-.288 1.572-.432 2.592-.432.684 0 1.374.072 2.07.216.708.132 1.302.336 1.782.612l-1.026 2.322c-.48-.276-.96-.462-1.44-.558-.48-.108-.936-.162-1.368-.162-.576 0-.984.066-1.224.198-.228.132-.342.294-.342.486s.102.342.306.45c.204.096.474.174.81.234l1.134.162c.408.048.816.126 1.224.234.42.108.798.27 1.134.486.348.204.624.486.828.846.204.348.306.798.306 1.35 0 .6-.186 1.14-.558 1.62-.36.48-.9.864-1.62 1.152-.708.288-1.59.432-2.646.432zm6.297-.162v-9.756h3.42V108h-3.42zm1.71-10.836c-.624 0-1.128-.174-1.512-.522s-.576-.78-.576-1.296.192-.948.576-1.296.888-.522 1.512-.522 1.128.168 1.512.504a1.57 1.57 0 0 1 .576 1.26c0 .54-.192.99-.576 1.35-.372.348-.876.522-1.512.522zM129.114 108l-4.014-9.756h3.51l3.204 8.154h-1.764l3.366-8.154h3.258L132.642 108h-3.528zm13.292.162c-1.152 0-2.16-.216-3.024-.648-.852-.444-1.518-1.044-1.998-1.8-.468-.768-.702-1.638-.702-2.61s.228-1.836.684-2.592c.468-.768 1.11-1.362 1.926-1.782.816-.432 1.734-.648 2.754-.648.96 0 1.836.198 2.628.594a4.48 4.48 0 0 1 1.89 1.71c.468.756.702 1.674.702 2.754l-.018.414-.036.432h-7.722v-1.8h5.904l-1.296.504c.012-.444-.072-.828-.252-1.152-.168-.324-.408-.576-.72-.756-.3-.18-.654-.27-1.062-.27s-.768.09-1.08.27c-.3.18-.534.438-.702.774-.168.324-.252.708-.252 1.152v.522c0 .48.096.894.288 1.242.204.348.492.618.864.81.372.18.816.27 1.332.27.48 0 .888-.066 1.224-.198.348-.144.69-.36 1.026-.648l1.8 1.872c-.468.516-1.044.912-1.728 1.188-.684.264-1.494.396-2.43.396zM38.694 130v-12.6h5.958c1.392 0 2.616.258 3.672.774s1.878 1.242 2.466 2.178c.6.936.9 2.052.9 3.348 0 1.284-.3 2.4-.9 3.348-.588.936-1.41 1.662-2.466 2.178s-2.28.774-3.672.774h-5.958zm3.564-2.844h2.25c.72 0 1.344-.132 1.872-.396a3.01 3.01 0 0 0 1.26-1.188c.3-.528.45-1.152.45-1.872 0-.732-.15-1.356-.45-1.872s-.72-.906-1.26-1.17c-.528-.276-1.152-.414-1.872-.414h-2.25v6.912zM53.403 130v-9.756h3.42V130h-3.42zm1.71-10.836c-.624 0-1.128-.174-1.512-.522s-.576-.78-.576-1.296.192-.948.576-1.296.888-.522 1.512-.522 1.128.168 1.512.504a1.57 1.57 0 0 1 .576 1.26c0 .54-.192.99-.576 1.35-.372.348-.876.522-1.512.522zm7.479 10.998c-.828 0-1.638-.096-2.43-.288-.78-.192-1.41-.432-1.89-.72l1.026-2.34c.456.276.99.498 1.602.666a7.27 7.27 0 0 0 1.8.234c.576 0 .972-.06 1.188-.18.228-.12.342-.282.342-.486 0-.192-.108-.33-.324-.414-.204-.096-.48-.168-.828-.216l-1.116-.162-1.242-.234c-.408-.108-.786-.264-1.134-.468-.336-.216-.606-.504-.81-.864s-.306-.816-.306-1.368c0-.624.18-1.176.54-1.656.372-.492.912-.876 1.62-1.152.708-.288 1.572-.432 2.592-.432.684 0 1.374.072 2.07.216.708.132 1.302.336 1.782.612l-1.026 2.322c-.48-.276-.96-.462-1.44-.558-.48-.108-.936-.162-1.368-.162-.576 0-.984.066-1.224.198-.228.132-.342.294-.342.486s.102.342.306.45c.204.096.474.174.81.234l1.134.162c.408.048.816.126 1.224.234.42.108.798.27 1.134.486.348.204.624.486.828.846.204.348.306.798.306 1.35 0 .6-.186 1.14-.558 1.62-.36.48-.9.864-1.62 1.152-.708.288-1.59.432-2.646.432zm11.284 0c-1.08 0-2.046-.216-2.898-.648a5 5 0 0 1-1.98-1.782c-.48-.768-.72-1.644-.72-2.628s.24-1.854.72-2.61 1.14-1.344 1.98-1.764c.852-.432 1.818-.648 2.898-.648 1.104 0 2.058.234 2.862.702s1.374 1.128 1.71 1.98l-2.646 1.35c-.228-.456-.51-.786-.846-.99a1.99 1.99 0 0 0-1.098-.324c-.396 0-.756.09-1.08.27s-.582.444-.774.792c-.18.336-.27.75-.27 1.242 0 .504.09.93.27 1.278.192.348.45.612.774.792s.684.27 1.08.27.762-.102 1.098-.306c.336-.216.618-.552.846-1.008l2.646 1.35c-.336.852-.906 1.512-1.71 1.98s-1.758.702-2.862.702zm10.65 0c-1.068 0-2.016-.216-2.844-.648a5.03 5.03 0 0 1-1.962-1.782c-.468-.768-.702-1.644-.702-2.628s.234-1.854.702-2.61a4.9 4.9 0 0 1 1.962-1.764c.828-.432 1.776-.648 2.844-.648s2.016.216 2.844.648c.84.42 1.494 1.008 1.962 1.764s.702 1.626.702 2.61-.234 1.86-.702 2.628c-.468.756-1.122 1.35-1.962 1.782-.828.432-1.776.648-2.844.648zm0-2.718a1.99 1.99 0 0 0 1.044-.27c.312-.18.558-.444.738-.792.18-.36.27-.786.27-1.278s-.09-.906-.27-1.242c-.18-.348-.426-.612-.738-.792a1.99 1.99 0 0 0-1.044-.27 2.05 2.05 0 0 0-1.044.27c-.3.18-.546.444-.738.792-.18.336-.27.75-.27 1.242s.09.918.27 1.278c.192.348.438.612.738.792a2.05 2.05 0 0 0 1.044.27zm11.196 2.718c-.792 0-1.506-.156-2.142-.468-.624-.312-1.116-.798-1.476-1.458-.348-.672-.522-1.518-.522-2.538v-5.454h3.42v4.896c0 .756.138 1.296.414 1.62.288.324.69.486 1.206.486.336 0 .642-.078.918-.234s.498-.402.666-.738c.168-.348.252-.792.252-1.332v-4.698h3.421V130H98.62v-2.754l.63.774c-.336.72-.822 1.26-1.458 1.62-.636.348-1.326.522-2.07.522zm14.712-10.08c.756 0 1.44.156 2.052.468.612.3 1.092.768 1.44 1.404.36.636.54 1.458.54 2.466V130h-3.42v-5.022c0-.696-.144-1.2-.432-1.512-.276-.324-.666-.486-1.17-.486a1.99 1.99 0 0 0-.99.252c-.3.156-.534.402-.702.738s-.252.774-.252 1.314V130h-3.42v-9.756h3.258v2.772l-.63-.81c.372-.708.882-1.236 1.53-1.584.648-.36 1.38-.54 2.196-.54zm10.536 10.08c-1.248 0-2.22-.306-2.916-.918-.696-.624-1.044-1.56-1.044-2.808v-8.37h3.42v8.334c0 .348.096.624.288.828.192.192.438.288.738.288.408 0 .756-.102 1.044-.306l.846 2.394c-.288.192-.642.33-1.062.414a5.88 5.88 0 0 1-1.314.144zm-5.382-7.002v-2.556h7.074v2.556h-7.074zm-89.942 28.09v-6.3h1.498v6.3h-1.498zm-2.478-2.45v-1.4h6.454v1.4h-6.454zm10.77 4.34a7.12 7.12 0 0 1-2.03-.294c-.653-.205-1.204-.485-1.652-.84l.784-1.414a4.25 4.25 0 0 0 1.288.7 4.74 4.74 0 0 0 1.582.266c.653 0 1.162-.131 1.526-.392a1.29 1.29 0 0 0 .546-1.092c0-.448-.168-.803-.504-1.064s-.877-.392-1.624-.392h-.896v-1.246l2.8-3.332.238.686h-5.264V143.2h6.678v1.218l-2.8 3.332-.952-.56h.546c1.204 0 2.105.271 2.702.812.607.532.91 1.218.91 2.058a2.91 2.91 0 0 1-.42 1.526c-.28.467-.709.845-1.288 1.134-.569.28-1.293.42-2.17.42zm11.304-5.432h4.886v1.54h-4.886v-1.54zm.154 5.292h-1.82v-9.8h7.154v1.526h-5.334V153zm7.094 0v-9.8h4.032c.868 0 1.61.14 2.226.42.625.28 1.106.681 1.442 1.204s.504 1.143.504 1.862-.168 1.339-.504 1.862c-.336.513-.817.91-1.442 1.19-.616.271-1.358.406-2.226.406h-3.024l.812-.826V153h-1.82zm6.412 0l-2.478-3.556h1.946L60.862 153h-1.96zm-4.592-3.486l-.812-.868h2.94c.803 0 1.405-.173 1.806-.518.411-.345.616-.826.616-1.442 0-.625-.205-1.106-.616-1.442-.401-.336-1.003-.504-1.806-.504h-2.94l.812-.896v5.67zm10.1-2.24h4.872v1.498H64.41v-1.498zm.14 4.2h5.53V153h-7.35v-9.8h7.154v1.526H64.55v6.748zm9.239-4.2h4.872v1.498h-4.872v-1.498zm.14 4.2h5.53V153h-7.35v-9.8h7.154v1.526h-5.334v6.748zM85.357 153v-9.8h1.498l4.284 7.154h-.784l4.214-7.154h1.498l.014 9.8h-1.722l-.014-7.098h.364l-3.584 5.978h-.812l-3.64-5.978h.42V153h-1.736zm16.563.098c-.765 0-1.447-.163-2.044-.49-.597-.336-1.069-.793-1.414-1.372s-.518-1.237-.518-1.974c0-.747.173-1.405.518-1.974a3.66 3.66 0 0 1 1.414-1.358c.597-.327 1.279-.49 2.044-.49.775 0 1.461.163 2.058.49a3.57 3.57 0 0 1 1.414 1.344c.345.569.518 1.232.518 1.988 0 .737-.173 1.395-.518 1.974a3.63 3.63 0 0 1-1.414 1.372c-.597.327-1.283.49-2.058.49zm0-1.498c.429 0 .812-.093 1.148-.28a1.94 1.94 0 0 0 .784-.812c.196-.355.294-.77.294-1.246 0-.485-.098-.901-.294-1.246a1.94 1.94 0 0 0-.784-.812c-.336-.187-.714-.28-1.134-.28-.429 0-.812.093-1.148.28-.327.187-.588.457-.784.812-.196.345-.294.761-.294 1.246 0 .476.098.891.294 1.246s.457.625.784.812c.336.187.714.28 1.134.28zm9.906-6.16c.597 0 1.129.117 1.596.35.476.233.849.593 1.12 1.078.27.476.406 1.092.406 1.848V153h-1.75v-4.06c0-.663-.159-1.157-.476-1.484-.308-.327-.742-.49-1.302-.49-.411 0-.775.084-1.092.252a1.76 1.76 0 0 0-.742.756c-.168.327-.252.742-.252 1.246V153h-1.75v-7.476h1.666v2.016l-.294-.616c.261-.476.639-.84 1.134-1.092.504-.261 1.082-.392 1.736-.392zm8.156 7.658c-.822 0-1.456-.21-1.904-.63-.448-.429-.672-1.059-.672-1.89v-6.706h1.75v6.664c0 .355.088.63.266.826.186.196.443.294.77.294.392 0 .718-.103.98-.308l.49 1.246c-.206.168-.458.294-.756.378a3.4 3.4 0 0 1-.924.126zm-3.808-6.118v-1.4h4.984v1.4h-4.984zm11.169-1.54c.597 0 1.129.117 1.596.35.476.233.849.593 1.12 1.078.271.476.406 1.092.406 1.848V153h-1.75v-4.06c0-.663-.159-1.157-.476-1.484-.308-.327-.742-.49-1.302-.49-.411 0-.775.084-1.092.252a1.76 1.76 0 0 0-.742.756c-.168.327-.252.742-.252 1.246V153h-1.75v-10.388h1.75v4.928l-.378-.616c.261-.476.639-.84 1.134-1.092.504-.261 1.083-.392 1.736-.392zm7.652 7.658a6.79 6.79 0 0 1-1.806-.238c-.569-.168-1.022-.369-1.358-.602l.672-1.33c.336.215.737.392 1.204.532a4.85 4.85 0 0 0 1.4.21c.551 0 .947-.075 1.19-.224.252-.149.378-.35.378-.602 0-.205-.084-.359-.252-.462-.168-.112-.387-.196-.658-.252l-.91-.154-.994-.182c-.327-.084-.625-.201-.896-.35-.271-.159-.49-.369-.658-.63s-.252-.607-.252-1.036c0-.476.135-.887.406-1.232.271-.355.649-.625 1.134-.812.495-.196 1.078-.294 1.75-.294a7.14 7.14 0 0 1 1.526.168c.513.112.938.271 1.274.476l-.672 1.33a3.4 3.4 0 0 0-1.078-.434c-.355-.084-.709-.126-1.064-.126-.532 0-.929.079-1.19.238-.252.159-.378.359-.378.602 0 .224.084.392.252.504s.387.201.658.266l.896.168a7.12 7.12 0 0 1 .994.182c.327.084.625.201.896.35.28.14.504.341.672.602s.252.602.252 1.022c0 .467-.14.873-.42 1.218-.271.345-.658.616-1.162.812-.504.187-1.106.28-1.806.28z"/></g><rect x="14" y="176" width="132" height="34" rx="4" fill="#ff7800"/><path d="M45.242 197.144c-.648 0-1.252-.104-1.812-.312a4.33 4.33 0 0 1-1.44-.912 4.28 4.28 0 0 1-.96-1.38 4.41 4.41 0 0 1-.336-1.74 4.41 4.41 0 0 1 .336-1.74 4.28 4.28 0 0 1 .96-1.38 4.31 4.31 0 0 1 1.452-.9 4.93 4.93 0 0 1 1.812-.324c.728 0 1.384.128 1.968.384.592.248 1.088.616 1.488 1.104l-1.248 1.152c-.288-.328-.608-.572-.96-.732a2.64 2.64 0 0 0-1.152-.252c-.392 0-.752.064-1.08.192a2.45 2.45 0 0 0-.852.552c-.24.24-.428.524-.564.852a2.98 2.98 0 0 0-.192 1.092 2.98 2.98 0 0 0 .192 1.092c.136.328.324.612.564.852a2.45 2.45 0 0 0 .852.552c.328.128.688.192 1.08.192a2.75 2.75 0 0 0 1.152-.24 2.93 2.93 0 0 0 .96-.756l1.248 1.152a3.89 3.89 0 0 1-1.488 1.116c-.584.256-1.244.384-1.98.384zm4.901-.144v-8.4h1.944v6.816h4.212V197h-6.156zm6.305 0l3.744-8.4h1.92l3.756 8.4h-2.04l-3.072-7.416h.768L58.44 197h-1.992zm1.872-1.8l.516-1.476h4.32l.528 1.476H58.32zm8.539 1.8v-8.4h1.944v8.4h-1.944zm4.058 0v-8.4h1.608l3.576 5.928h-.852l3.516-5.928h1.596l.024 8.4h-1.824l-.012-5.604h.336l-2.808 4.716h-.876l-2.868-4.716h.408V197h-1.824zm15.099 0v-8.4h3.816c.912 0 1.716.176 2.412.528.696.344 1.24.828 1.632 1.452s.588 1.364.588 2.22c0 .848-.196 1.588-.588 2.22-.392.624-.936 1.112-1.632 1.464-.696.344-1.5.516-2.412.516h-3.816zm1.944-1.596h1.776c.56 0 1.044-.104 1.452-.312.416-.216.736-.52.96-.912.232-.392.348-.852.348-1.38 0-.536-.116-.996-.348-1.38-.224-.392-.544-.692-.96-.9-.408-.216-.892-.324-1.452-.324H87.96v5.208zm9.878-3.42h4.044v1.512h-4.044v-1.512zm.144 3.456h4.572V197H96.05v-8.4h6.348v1.56h-4.416v5.28zm5.135 1.56l3.744-8.4h1.92l3.756 8.4h-2.04l-3.072-7.416h.768L105.109 197h-1.992zm1.872-1.8l.516-1.476h4.32l.528 1.476h-5.364zm8.539 1.8v-8.4h1.944v6.816h4.212V197h-6.156zm-82.511 25v-7h1.3v5.9h3.66v1.1h-4.96zm5.786 0v-7h1.3v7h-1.3zm2.993 0v-7h1.07l3.06 5.11h-.56l3.01-5.11h1.07l.01 7h-1.23l-.01-5.07h.26l-2.56 4.27h-.58l-2.6-4.27h.3V222h-1.24zm9.351 0v-7h1.3v7h-1.3zm4.413 0v-5.9h-2.32V215h5.94v1.1h-2.32v5.9h-1.3zm5.596-4.09h3.48v1.07h-3.48v-1.07zm.1 3h3.95V222h-5.25v-7h5.11v1.09h-3.81v4.82zm5.199 1.09v-7h3.06c.76 0 1.427.147 2 .44a3.3 3.3 0 0 1 1.34 1.22c.32.52.48 1.133.48 1.84 0 .7-.16 1.313-.48 1.84a3.3 3.3 0 0 1-1.34 1.22c-.573.293-1.24.44-2 .44h-3.06zm1.3-1.1h1.7c.527 0 .98-.1 1.36-.3.387-.2.683-.48.89-.84.213-.36.32-.78.32-1.26 0-.487-.107-.907-.32-1.26-.207-.36-.503-.64-.89-.84-.38-.2-.833-.3-1.36-.3h-1.7v4.8zm6.421-1.16v-1.04h2.75v1.04h-2.75zm5.106 2.26v-5.9h-2.32V215h5.94v1.1h-2.32v5.9h-1.3zm4.396 0v-7h1.3v7h-1.3zm2.993 0v-7h1.07l3.06 5.11h-.56l3.01-5.11h1.07l.01 7h-1.23l-.01-5.07h.26l-2.56 4.27h-.58l-2.6-4.27h.3V222h-1.24zm10.551-4.09h3.48v1.07h-3.48v-1.07zm.1 3h3.95V222h-5.25v-7h5.11v1.09h-3.81v4.82zm11.043 1.19c-.547 0-1.05-.09-1.51-.27s-.86-.43-1.2-.75c-.34-.327-.604-.707-.79-1.14-.187-.44-.28-.92-.28-1.44a3.57 3.57 0 0 1 .28-1.43c.186-.44.45-.82.79-1.14.34-.327.74-.58 1.2-.76a4.08 4.08 0 0 1 1.5-.27c.546 0 1.046.09 1.5.27.46.18.86.433 1.2.76a3.34 3.34 0 0 1 .79 1.14c.186.433.28.91.28 1.43a3.66 3.66 0 0 1-.28 1.44 3.34 3.34 0 0 1-.79 1.14c-.34.32-.74.57-1.2.75-.454.18-.95.27-1.49.27zm-.01-1.14c.353 0 .68-.06.98-.18s.56-.29.78-.51a2.44 2.44 0 0 0 .51-.78c.126-.3.19-.63.19-.99s-.064-.687-.19-.98c-.12-.3-.29-.56-.51-.78a2.22 2.22 0 0 0-.78-.52c-.3-.12-.627-.18-.98-.18s-.68.06-.98.18c-.294.12-.554.293-.78.52a2.41 2.41 0 0 0-.52.78c-.12.293-.18.62-.18.98 0 .353.06.68.18.98.126.3.3.563.52.79.22.22.48.39.78.51s.626.18.98.18zm4.947 1.04v-7h1.07l4.39 5.39h-.53V215h1.29v7h-1.07l-4.39-5.39h.53V222h-1.29zm7.896 0v-7h1.3v5.9h3.66v1.1h-4.96zm6.774 0v-2.77l.29.8-3.04-5.03h1.39l2.44 4.05h-.78l2.46-4.05h1.28l-3.04 5.03.3-.8V222h-1.3z" fill="#fff"/><path d="M146 49H14" stroke="#fff" stroke-opacity=".2"/><defs><linearGradient id="A" x1="80" y1="0" x2="80" y2="235" gradientUnits="userSpaceOnUse"><stop stop-color="#26315a"/><stop offset="1" stop-color="#1a223f"/></linearGradient><clipPath id="B"><path fill="#fff" transform="translate(14 18)" d="M0 0h131.833v21H0z"/></clipPath></defs></svg>