<svg xmlns="http://www.w3.org/2000/svg" width="300" height="125" fill="none"><path fill="url(#A)" d="M0 0h300v125H0z"/><g fill="#fff"><path d="M15.076 19.144c-.664 0-1.28-.108-1.848-.324a4.44 4.44 0 0 1-1.464-.912 4.28 4.28 0 0 1-.96-1.38c-.224-.528-.336-1.104-.336-1.728s.112-1.2.336-1.728c.232-.528.556-.988.972-1.38a4.44 4.44 0 0 1 1.464-.912c.56-.216 1.168-.324 1.824-.324.664 0 1.272.108 1.824.324.56.216 1.044.52 1.452.912.416.392.74.852.972 1.38.232.52.348 1.096.348 1.728 0 .624-.116 1.204-.348 1.74-.232.528-.556.988-.972 1.38-.408.384-.892.684-1.452.9a4.93 4.93 0 0 1-1.812.324zm-.012-1.656c.376 0 .72-.064 1.032-.192.32-.128.6-.312.84-.552a2.45 2.45 0 0 0 .552-.852c.136-.328.204-.692.204-1.092s-.068-.764-.204-1.092a2.45 2.45 0 0 0-.552-.852 2.35 2.35 0 0 0-.828-.552c-.32-.128-.668-.192-1.044-.192s-.724.064-1.044.192c-.312.128-.588.312-.828.552s-.428.524-.564.852a2.98 2.98 0 0 0-.192 1.092c0 .392.064.756.192 1.092a2.7 2.7 0 0 0 .552.852c.24.24.52.424.84.552s.668.192 1.044.192zm7.737-3.108h4.032v1.56h-4.032v-1.56zm.144 4.62h-1.944v-8.4h6.348v1.56h-4.404V19zm7.4-4.62h4.032v1.56h-4.032v-1.56zm.144 4.62h-1.944v-8.4h6.348v1.56h-4.404V19zm5.6 0v-8.4h1.944V19h-1.944zm7.837.144c-.648 0-1.252-.104-1.812-.312a4.33 4.33 0 0 1-1.44-.912 4.28 4.28 0 0 1-.96-1.38 4.41 4.41 0 0 1-.336-1.74 4.41 4.41 0 0 1 .336-1.74 4.28 4.28 0 0 1 .96-1.38 4.31 4.31 0 0 1 1.452-.9 4.93 4.93 0 0 1 1.812-.324c.728 0 1.384.128 1.968.384.592.248 1.088.616 1.488 1.104l-1.248 1.152c-.288-.328-.608-.572-.96-.732a2.64 2.64 0 0 0-1.152-.252c-.392 0-.752.064-1.08.192a2.45 2.45 0 0 0-.852.552c-.24.24-.428.524-.564.852a2.98 2.98 0 0 0-.192 1.092 2.98 2.98 0 0 0 .192 1.092c.136.328.324.612.564.852a2.45 2.45 0 0 0 .852.552c.328.128.688.192 1.08.192a2.75 2.75 0 0 0 1.152-.24 2.93 2.93 0 0 0 .96-.756l1.248 1.152a3.89 3.89 0 0 1-1.488 1.116c-.584.256-1.244.384-1.98.384zM48.587 19v-8.4h1.944V19h-1.944zm2.713 0l3.744-8.4h1.92l3.756 8.4h-2.04l-3.072-7.416h.768L53.293 19h-1.992zm1.872-1.8l.516-1.476h4.32l.528 1.476h-5.364zm8.3 1.8v-8.4h1.944v6.816h4.212V19h-6.156zm13.161.144a7 7 0 0 1-1.932-.264c-.616-.184-1.112-.42-1.488-.708l.66-1.464c.36.256.784.468 1.272.636a4.86 4.86 0 0 0 1.5.24c.384 0 .692-.036.924-.108.24-.08.416-.188.528-.324s.168-.292.168-.468c0-.224-.088-.4-.264-.528-.176-.136-.408-.244-.696-.324a10.5 10.5 0 0 0-.96-.24l-1.044-.288c-.344-.112-.66-.256-.948-.432a2.18 2.18 0 0 1-.708-.696c-.176-.288-.264-.656-.264-1.104a2.34 2.34 0 0 1 .384-1.308c.264-.4.656-.716 1.176-.948.528-.24 1.188-.36 1.98-.36a6.41 6.41 0 0 1 1.56.192c.512.12.964.304 1.356.552l-.6 1.476a4.91 4.91 0 0 0-1.176-.492 4.18 4.18 0 0 0-1.152-.168c-.376 0-.684.044-.924.132s-.412.204-.516.348c-.104.136-.156.296-.156.48 0 .216.088.392.264.528.176.128.408.232.696.312l.948.24 1.044.276a4.01 4.01 0 0 1 .96.42 2.07 2.07 0 0 1 .696.696c.184.288.276.652.276 1.092a2.27 2.27 0 0 1-.396 1.296c-.264.392-.66.708-1.188.948-.52.24-1.18.36-1.98.36zM78.301 19l3.744-8.4h1.92l3.756 8.4h-2.04l-3.072-7.416h.768L80.293 19h-1.992zm1.872-1.8l.516-1.476h4.32l.528 1.476h-5.364zm8.299 1.8v-8.4h4.104c1.056 0 1.848.2 2.376.6a1.88 1.88 0 0 1 .804 1.584c0 .44-.108.824-.324 1.152-.216.32-.512.568-.888.744s-.808.264-1.296.264l.228-.492c.528 0 .996.088 1.404.264.408.168.724.42.948.756.232.336.348.748.348 1.236 0 .72-.284 1.284-.852 1.692-.568.4-1.404.6-2.508.6h-4.344zm1.932-1.464h2.268c.504 0 .884-.08 1.14-.24.264-.168.396-.432.396-.792 0-.352-.132-.612-.396-.78-.256-.176-.636-.264-1.14-.264h-2.412v-1.416h2.076c.472 0 .832-.08 1.08-.24.256-.168.384-.42.384-.756 0-.328-.128-.572-.384-.732-.248-.168-.608-.252-1.08-.252h-1.932v5.472zm10.916-5.088c.512 0 .968.104 1.368.312.408.2.728.512.96.936.232.416.348.952.348 1.608V19h-1.872v-3.408c0-.52-.116-.904-.348-1.152-.224-.248-.544-.372-.96-.372a1.68 1.68 0 0 0-.804.192c-.232.12-.416.308-.552.564-.128.256-.192.584-.192.984V19h-1.872v-6.456h1.788v1.788l-.336-.54a2.39 2.39 0 0 1 .996-.996c.432-.232.924-.348 1.476-.348zM105.13 19v-1.128l3.816-4.512.324.624h-4.056v-1.44h5.568v1.128l-3.816 4.512-.336-.624h4.26V19h-5.76zm10.655.096c-.568 0-1.056-.12-1.464-.36s-.72-.604-.936-1.092c-.216-.496-.324-1.12-.324-1.872 0-.76.112-1.384.336-1.872.232-.488.552-.852.96-1.092s.884-.36 1.428-.36c.608 0 1.152.136 1.632.408.488.272.872.656 1.152 1.152.288.496.432 1.084.432 1.764 0 .672-.144 1.256-.432 1.752a3.04 3.04 0 0 1-1.152 1.164c-.48.272-1.024.408-1.632.408zM111.969 19v-8.904h1.872v3.756l-.12 1.908.036 1.92V19h-1.788zm3.492-1.44c.312 0 .588-.072.828-.216.248-.144.444-.348.588-.612.152-.272.228-.592.228-.96 0-.376-.076-.696-.228-.96-.144-.264-.34-.468-.588-.612-.24-.144-.516-.216-.828-.216s-.592.072-.84.216-.444.348-.588.612-.216.584-.216.96c0 .368.072.688.216.96.144.264.34.468.588.612s.528.216.84.216zm7.445 1.536c-.608 0-1.156-.136-1.644-.408-.488-.28-.876-.668-1.164-1.164-.28-.496-.42-1.08-.42-1.752 0-.68.14-1.268.42-1.764.288-.496.676-.88 1.164-1.152s1.036-.408 1.644-.408c.544 0 1.02.12 1.428.36s.724.604.948 1.092.336 1.112.336 1.872c0 .752-.108 1.376-.324 1.872-.216.488-.528.852-.936 1.092-.4.24-.884.36-1.452.36zm.324-1.536a1.62 1.62 0 0 0 .828-.216c.248-.144.444-.348.588-.612.152-.272.228-.592.228-.96 0-.376-.076-.696-.228-.96-.144-.264-.34-.468-.588-.612a1.62 1.62 0 0 0-.828-.216c-.312 0-.592.072-.84.216s-.448.348-.6.612c-.144.264-.216.584-.216.96 0 .368.072.688.216.96.152.264.352.468.6.612s.528.216.84.216zm1.692 1.44v-1.32l.036-1.92-.12-1.908v-3.756h1.872V19h-1.788zm10.891.144c-.664 0-1.28-.108-1.848-.324a4.44 4.44 0 0 1-1.464-.912 4.28 4.28 0 0 1-.96-1.38c-.224-.528-.336-1.104-.336-1.728s.112-1.2.336-1.728c.232-.528.556-.988.972-1.38a4.44 4.44 0 0 1 1.464-.912c.56-.216 1.168-.324 1.824-.324.664 0 1.272.108 1.824.324.56.216 1.044.52 1.452.912.416.392.74.852.972 1.38.232.52.348 1.096.348 1.728 0 .624-.116 1.204-.348 1.74-.232.528-.556.988-.972 1.38-.408.384-.892.684-1.452.9a4.93 4.93 0 0 1-1.812.324zm-.012-1.656c.376 0 .72-.064 1.032-.192.32-.128.6-.312.84-.552a2.45 2.45 0 0 0 .552-.852c.136-.328.204-.692.204-1.092s-.068-.764-.204-1.092a2.45 2.45 0 0 0-.552-.852 2.35 2.35 0 0 0-.828-.552c-.32-.128-.668-.192-1.044-.192s-.724.064-1.044.192c-.312.128-.588.312-.828.552s-.428.524-.564.852a2.98 2.98 0 0 0-.192 1.092c0 .392.064.756.192 1.092a2.7 2.7 0 0 0 .552.852c.24.24.52.424.84.552s.668.192 1.044.192zm7.737-3.108h4.032v1.56h-4.032v-1.56zm.144 4.62h-1.944v-8.4h6.348v1.56h-4.404V19zm7.4-4.62h4.032v1.56h-4.032v-1.56zm.144 4.62h-1.944v-8.4h6.348v1.56h-4.404V19zm7.388-5.016h4.044v1.512h-4.044v-1.512zm.144 3.456h4.572V19h-6.504v-8.4h6.348v1.56h-4.416v5.28zm5.999 1.56v-8.4h3.636c.752 0 1.4.124 1.944.372.544.24.964.588 1.26 1.044s.444 1 .444 1.632c0 .624-.148 1.164-.444 1.62-.296.448-.716.792-1.26 1.032s-1.192.36-1.944.36h-2.556l.864-.852V19h-1.944zm5.34 0l-2.1-3.048h2.076L172.197 19h-2.1zm-3.396-2.976l-.864-.912h2.448c.6 0 1.048-.128 1.344-.384.296-.264.444-.624.444-1.08 0-.464-.148-.824-.444-1.08s-.744-.384-1.344-.384h-2.448l.864-.924v4.764z"/><path d="M13.22 47l6.279-14.421 1.219 1.932h-8.165l1.863-2.093v4.577h-3.887V30.9h13.34v2.852L18.188 47H13.22zm18.752.322c-1.38 0-2.607-.33-3.68-.989-1.058-.659-1.894-1.61-2.507-2.852s-.92-2.752-.92-4.531.307-3.289.92-4.531 1.449-2.193 2.507-2.852c1.073-.659 2.3-.989 3.68-.989 1.365 0 2.576.33 3.634.989 1.073.659 1.917 1.61 2.53 2.852s.92 2.752.92 4.531-.307 3.289-.92 4.531-1.457 2.193-2.53 2.852c-1.058.659-2.269.989-3.634.989zm0-3.726a1.95 1.95 0 0 0 1.288-.46c.383-.307.682-.797.897-1.472.215-.69.322-1.595.322-2.714 0-1.135-.107-2.039-.322-2.714s-.514-1.165-.897-1.472a1.95 1.95 0 0 0-1.288-.46 2.04 2.04 0 0 0-1.311.46c-.368.307-.667.797-.897 1.472-.215.675-.322 1.579-.322 2.714 0 1.119.107 2.024.322 2.714.23.675.529 1.165.897 1.472a2.04 2.04 0 0 0 1.311.46zM42.979 47l10.994-16.1h3.312L46.291 47h-3.312zm1.472-7.383c-.782 0-1.487-.176-2.116-.529a3.7 3.7 0 0 1-1.472-1.518c-.353-.675-.529-1.48-.529-2.415s.176-1.733.529-2.392a3.7 3.7 0 0 1 1.472-1.518 4.11 4.11 0 0 1 2.116-.552c.797 0 1.503.184 2.116.552a3.7 3.7 0 0 1 1.472 1.518c.368.659.552 1.457.552 2.392 0 .92-.184 1.717-.552 2.392-.353.675-.843 1.188-1.472 1.541-.613.353-1.319.529-2.116.529zm.023-2.185c.383 0 .698-.176.943-.529.261-.353.391-.935.391-1.748s-.13-1.395-.391-1.748c-.245-.353-.56-.529-.943-.529s-.713.176-.989.529c-.261.353-.391.935-.391 1.748s.13 1.395.391 1.748c.276.353.606.529.989.529zm11.339 9.775c-.797 0-1.51-.176-2.139-.529a3.75 3.75 0 0 1-1.449-1.518c-.353-.675-.529-1.48-.529-2.415s.176-1.733.529-2.392a3.75 3.75 0 0 1 1.449-1.518c.629-.368 1.342-.552 2.139-.552s1.503.184 2.116.552a3.7 3.7 0 0 1 1.472 1.518c.368.659.552 1.457.552 2.392s-.184 1.74-.552 2.415a3.7 3.7 0 0 1-1.472 1.518c-.613.353-1.319.529-2.116.529zm0-2.185c.383 0 .705-.176.966-.529s.391-.935.391-1.748-.13-1.395-.391-1.748-.583-.529-.966-.529c-.368 0-.69.176-.966.529-.261.353-.391.935-.391 1.748s.13 1.395.391 1.748c.276.353.598.529.966.529zm17.146-7.889h7.475v3.404h-7.475v-3.404zm.322 6.348h8.418V47H68.773V30.9H81.4v3.519h-8.119v9.062zM82.503 47l5.727-7.521-.092 2.484-5.497-7.429h4.922l3.082 4.393-1.84.092 3.266-4.485h4.623l-5.497 7.268V39.41L96.855 47h-4.991l-3.22-4.692 1.84.253L87.241 47h-4.738zm21.701.207c-1.38 0-2.615-.276-3.703-.828-1.074-.552-1.917-1.311-2.53-2.277-.613-.981-.92-2.101-.92-3.358s.307-2.369.92-3.335 1.457-1.717 2.53-2.254c1.088-.552 2.323-.828 3.703-.828 1.41 0 2.629.299 3.657.897a4.96 4.96 0 0 1 2.185 2.53l-3.381 1.725c-.292-.583-.652-1.004-1.081-1.265-.43-.276-.897-.414-1.403-.414s-.966.115-1.38.345-.744.567-.989 1.012c-.23.429-.345.958-.345 1.587 0 .644.115 1.188.345 1.633.245.445.575.782.989 1.012s.874.345 1.38.345a2.65 2.65 0 0 0 1.403-.391c.429-.276.789-.705 1.081-1.288l3.381 1.725c-.43 1.089-1.158 1.932-2.185 2.53s-2.247.897-3.657.897zm7.442-.207V29.934h4.37V47h-4.37zm12.454.207c-1.012 0-1.924-.199-2.737-.598-.797-.399-1.426-1.02-1.886-1.863-.445-.859-.667-1.94-.667-3.243v-6.969h4.37v6.256c0 .966.176 1.656.529 2.07.368.414.882.621 1.541.621.429 0 .82-.1 1.173-.299s.636-.514.851-.943c.215-.445.322-1.012.322-1.702v-6.003h4.37V47h-4.163v-3.519l.805.989c-.429.92-1.05 1.61-1.863 2.07a5.42 5.42 0 0 1-2.645.667zm15.212 0a13.15 13.15 0 0 1-3.105-.368c-.997-.245-1.802-.552-2.415-.92l1.311-2.99c.583.353 1.265.636 2.047.851.782.199 1.549.299 2.3.299.736 0 1.242-.077 1.518-.23.291-.153.437-.36.437-.621 0-.245-.138-.422-.414-.529-.261-.123-.613-.215-1.058-.276l-1.426-.207-1.587-.299c-.521-.138-1.004-.337-1.449-.598a3.12 3.12 0 0 1-1.035-1.104c-.261-.46-.391-1.043-.391-1.748 0-.797.23-1.503.69-2.116.475-.629 1.165-1.119 2.07-1.472.905-.368 2.009-.552 3.312-.552.874 0 1.756.092 2.645.276.905.169 1.664.429 2.277.782l-1.311 2.967c-.613-.353-1.227-.59-1.84-.713-.613-.138-1.196-.207-1.748-.207-.736 0-1.257.084-1.564.253-.291.169-.437.376-.437.621s.13.437.391.575c.261.123.606.222 1.035.299l1.449.207a11.23 11.23 0 0 1 1.564.299 4.92 4.92 0 0 1 1.449.621c.445.261.797.621 1.058 1.081.261.445.391 1.02.391 1.725 0 .767-.238 1.457-.713 2.07-.46.613-1.15 1.104-2.07 1.472-.905.368-2.032.552-3.381.552zm8.047-.207V34.534h4.37V47h-4.37zm2.185-13.846c-.797 0-1.441-.222-1.932-.667a2.14 2.14 0 0 1-.736-1.656 2.14 2.14 0 0 1 .736-1.656c.491-.445 1.135-.667 1.932-.667s1.441.215 1.932.644c.491.414.736.951.736 1.61 0 .69-.245 1.265-.736 1.725-.475.445-1.119.667-1.932.667zM158.042 47l-5.129-12.466h4.485l4.094 10.419h-2.254l4.301-10.419h4.163L162.55 47h-4.508zm16.985.207c-1.472 0-2.76-.276-3.864-.828-1.089-.567-1.94-1.334-2.553-2.3-.598-.981-.897-2.093-.897-3.335s.291-2.346.874-3.312c.598-.981 1.418-1.74 2.461-2.277 1.042-.552 2.215-.828 3.519-.828 1.226 0 2.346.253 3.358.759a5.73 5.73 0 0 1 2.415 2.185c.598.966.897 2.139.897 3.519l-.023.529-.046.552h-9.867v-2.3h7.544l-1.656.644c.015-.567-.092-1.058-.322-1.472-.215-.414-.522-.736-.92-.966-.384-.23-.836-.345-1.357-.345s-.982.115-1.38.345c-.384.23-.683.56-.897.989-.215.414-.322.905-.322 1.472v.667c0 .613.122 1.142.368 1.587.26.445.628.79 1.104 1.035.475.23 1.042.345 1.702.345.613 0 1.134-.084 1.564-.253.444-.184.881-.46 1.311-.828l2.3 2.392c-.598.659-1.334 1.165-2.208 1.518-.874.337-1.909.506-3.105.506zM11.61 72V55.9h7.613c1.779 0 3.343.33 4.692.989s2.4 1.587 3.151 2.783c.767 1.196 1.15 2.622 1.15 4.278 0 1.641-.383 3.067-1.15 4.278-.751 1.196-1.802 2.124-3.151 2.783S21.002 72 19.223 72H11.61zm4.554-3.634h2.875c.92 0 1.717-.169 2.392-.506.69-.353 1.227-.859 1.61-1.518.383-.675.575-1.472.575-2.392 0-.935-.192-1.733-.575-2.392a3.7 3.7 0 0 0-1.61-1.495c-.675-.353-1.472-.529-2.392-.529h-2.875v8.832zM30.405 72V59.534h4.37V72h-4.37zm2.185-13.846c-.797 0-1.441-.222-1.932-.667s-.736-.997-.736-1.656.245-1.211.736-1.656 1.135-.667 1.932-.667 1.441.215 1.932.644c.491.414.736.951.736 1.61 0 .69-.245 1.265-.736 1.725-.475.445-1.119.667-1.932.667zm9.556 14.053a13.15 13.15 0 0 1-3.105-.368c-.997-.245-1.802-.552-2.415-.92l1.311-2.99c.583.353 1.265.636 2.047.851a9.29 9.29 0 0 0 2.3.299c.736 0 1.242-.077 1.518-.23.291-.153.437-.36.437-.621 0-.245-.138-.422-.414-.529-.261-.123-.613-.215-1.058-.276l-1.426-.207-1.587-.299a5.77 5.77 0 0 1-1.449-.598 3.12 3.12 0 0 1-1.035-1.104c-.261-.46-.391-1.043-.391-1.748 0-.797.23-1.503.69-2.116.475-.629 1.165-1.119 2.07-1.472.905-.368 2.009-.552 3.312-.552.874 0 1.756.092 2.645.276.905.169 1.664.429 2.277.782l-1.311 2.967c-.613-.353-1.227-.59-1.84-.713a7.97 7.97 0 0 0-1.748-.207c-.736 0-1.257.084-1.564.253-.291.169-.437.376-.437.621s.13.437.391.575c.261.123.606.222 1.035.299l1.449.207a11.23 11.23 0 0 1 1.564.299 4.92 4.92 0 0 1 1.449.621c.445.261.797.621 1.058 1.081.261.445.391 1.02.391 1.725 0 .767-.238 1.457-.713 2.07-.46.613-1.15 1.104-2.07 1.472-.905.368-2.032.552-3.381.552zm14.418 0c-1.38 0-2.614-.276-3.703-.828-1.073-.552-1.917-1.311-2.53-2.277-.613-.981-.92-2.101-.92-3.358s.307-2.369.92-3.335 1.457-1.717 2.53-2.254c1.089-.552 2.323-.828 3.703-.828 1.411 0 2.63.299 3.657.897a4.96 4.96 0 0 1 2.185 2.53l-3.381 1.725c-.291-.583-.652-1.004-1.081-1.265-.429-.276-.897-.414-1.403-.414s-.966.115-1.38.345-.744.567-.989 1.012c-.23.429-.345.958-.345 1.587 0 .644.115 1.188.345 1.633.245.445.575.782.989 1.012s.874.345 1.38.345a2.65 2.65 0 0 0 1.403-.391c.429-.276.79-.705 1.081-1.288l3.381 1.725a4.96 4.96 0 0 1-2.185 2.53c-1.027.598-2.246.897-3.657.897zm13.609 0c-1.365 0-2.576-.276-3.634-.828s-1.894-1.311-2.507-2.277c-.598-.981-.897-2.101-.897-3.358s.299-2.369.897-3.335c.613-.966 1.449-1.717 2.507-2.254 1.058-.552 2.269-.828 3.634-.828s2.576.276 3.634.828c1.073.537 1.909 1.288 2.507 2.254s.897 2.078.897 3.335-.299 2.377-.897 3.358c-.598.966-1.434 1.725-2.507 2.277-1.058.552-2.269.828-3.634.828zm0-3.473c.506 0 .951-.115 1.334-.345a2.41 2.41 0 0 0 .943-1.012c.23-.46.345-1.004.345-1.633s-.115-1.158-.345-1.587a2.41 2.41 0 0 0-.943-1.012c-.383-.23-.828-.345-1.334-.345a2.62 2.62 0 0 0-1.334.345 2.62 2.62 0 0 0-.943 1.012c-.23.429-.345.958-.345 1.587s.115 1.173.345 1.633a2.62 2.62 0 0 0 .943 1.012 2.62 2.62 0 0 0 1.334.345zm14.306 3.473c-1.012 0-1.924-.199-2.737-.598-.797-.399-1.426-1.02-1.886-1.863-.445-.859-.667-1.94-.667-3.243v-6.969h4.37v6.256c0 .966.176 1.656.529 2.07.368.414.882.621 1.541.621.429 0 .82-.1 1.173-.299s.636-.514.851-.943c.215-.445.322-1.012.322-1.702v-6.003h4.37V72h-4.163v-3.519l.805.989c-.429.92-1.05 1.61-1.863 2.07a5.42 5.42 0 0 1-2.645.667zm18.8-12.88c.966 0 1.84.199 2.622.598.782.383 1.395.981 1.84 1.794.46.813.69 1.863.69 3.151V72h-4.37v-6.417c0-.889-.184-1.533-.552-1.932-.353-.414-.851-.621-1.495-.621a2.54 2.54 0 0 0-1.265.322c-.383.199-.682.514-.897.943s-.322.989-.322 1.679V72h-4.37V59.534h4.163v3.542l-.805-1.035c.475-.905 1.127-1.579 1.955-2.024.828-.46 1.763-.69 2.806-.69zm13.461 12.88c-1.594 0-2.836-.391-3.726-1.173-.889-.797-1.334-1.993-1.334-3.588V56.751h4.37V67.4c0 .445.123.797.368 1.058.246.245.56.368.943.368.522 0 .966-.13 1.334-.391l1.081 3.059c-.368.245-.82.422-1.357.529-.536.123-1.096.184-1.679.184zm-6.877-8.947v-3.266h9.039v3.266h-9.039zM13.388 92.25v-6.3h1.498v6.3h-1.498zM10.91 89.8v-1.4h6.454v1.4H10.91zm10.77 4.34a7.12 7.12 0 0 1-2.03-.294c-.653-.205-1.204-.485-1.652-.84l.784-1.414a4.25 4.25 0 0 0 1.288.7 4.73 4.73 0 0 0 1.582.266c.653 0 1.162-.131 1.526-.392a1.29 1.29 0 0 0 .546-1.092c0-.448-.168-.803-.504-1.064s-.877-.392-1.624-.392H20.7v-1.246l2.8-3.332.238.686h-5.264V84.2h6.678v1.218l-2.8 3.332-.952-.56h.546c1.204 0 2.105.271 2.702.812.607.532.91 1.218.91 2.058a2.91 2.91 0 0 1-.42 1.526c-.28.467-.709.845-1.288 1.134-.569.28-1.293.42-2.17.42zm11.304-5.432h4.886v1.54h-4.886v-1.54zM33.138 94h-1.82v-9.8h7.154v1.526h-5.334V94zm7.094 0v-9.8h4.032c.868 0 1.61.14 2.226.42.625.28 1.106.681 1.442 1.204s.504 1.143.504 1.862-.168 1.339-.504 1.862c-.336.513-.817.91-1.442 1.19-.616.271-1.358.406-2.226.406H41.24l.812-.826V94h-1.82zm6.412 0l-2.478-3.556h1.946L48.604 94h-1.96zm-4.592-3.486l-.812-.868h2.94c.803 0 1.405-.173 1.806-.518.411-.345.616-.826.616-1.442 0-.625-.205-1.106-.616-1.442-.401-.336-1.003-.504-1.806-.504h-2.94l.812-.896v5.67zm10.1-2.24h4.872v1.498h-4.872v-1.498zm.14 4.2h5.53V94h-7.35v-9.8h7.154v1.526h-5.334v6.748zm9.239-4.2h4.872v1.498h-4.872v-1.498zm.14 4.2h5.53V94h-7.35v-9.8h7.154v1.526h-5.334v6.748zM73.099 94v-9.8h1.498l4.284 7.154h-.784l4.214-7.154h1.498l.014 9.8h-1.722l-.014-7.098h.364l-3.584 5.978h-.812l-3.64-5.978h.42V94h-1.736zm16.563.098c-.765 0-1.447-.163-2.044-.49-.597-.336-1.069-.793-1.414-1.372s-.518-1.237-.518-1.974c0-.747.173-1.405.518-1.974a3.66 3.66 0 0 1 1.414-1.358c.597-.327 1.279-.49 2.044-.49.775 0 1.461.163 2.058.49a3.57 3.57 0 0 1 1.414 1.344c.345.569.518 1.232.518 1.988 0 .737-.173 1.395-.518 1.974a3.63 3.63 0 0 1-1.414 1.372c-.597.327-1.283.49-2.058.49zm0-1.498c.429 0 .812-.093 1.148-.28a1.94 1.94 0 0 0 .784-.812c.196-.355.294-.77.294-1.246 0-.485-.098-.901-.294-1.246a1.94 1.94 0 0 0-.784-.812c-.336-.187-.714-.28-1.134-.28-.429 0-.812.093-1.148.28-.327.187-.588.457-.784.812-.196.345-.294.761-.294 1.246 0 .476.098.891.294 1.246s.457.625.784.812c.336.187.714.28 1.134.28zm9.905-6.16c.597 0 1.129.117 1.596.35.476.233.849.593 1.12 1.078.27.476.406 1.092.406 1.848V94h-1.75v-4.06c0-.663-.159-1.157-.476-1.484-.308-.327-.742-.49-1.302-.49-.411 0-.775.084-1.092.252a1.76 1.76 0 0 0-.742.756c-.168.327-.252.742-.252 1.246V94h-1.75v-7.476h1.666v2.016l-.294-.616c.261-.476.639-.84 1.134-1.092.504-.261 1.083-.392 1.736-.392zm8.156 7.658c-.822 0-1.456-.21-1.904-.63-.448-.429-.672-1.059-.672-1.89v-6.706h1.75v6.664c0 .355.088.63.266.826.186.196.443.294.77.294.392 0 .718-.103.98-.308l.49 1.246c-.206.168-.458.294-.756.378a3.4 3.4 0 0 1-.924.126zm-3.808-6.118v-1.4h4.984v1.4h-4.984zm11.169-1.54c.598 0 1.13.117 1.596.35.476.233.85.593 1.12 1.078.271.476.406 1.092.406 1.848V94h-1.75v-4.06c0-.663-.158-1.157-.476-1.484-.308-.327-.742-.49-1.302-.49-.41 0-.774.084-1.092.252a1.76 1.76 0 0 0-.742.756c-.168.327-.252.742-.252 1.246V94h-1.75V83.612h1.75v4.928l-.378-.616c.262-.476.64-.84 1.134-1.092.504-.261 1.083-.392 1.736-.392zm7.652 7.658a6.8 6.8 0 0 1-1.806-.238c-.569-.168-1.022-.369-1.358-.602l.672-1.33c.336.215.738.392 1.204.532a4.85 4.85 0 0 0 1.4.21c.551 0 .948-.075 1.19-.224.252-.149.378-.35.378-.602 0-.205-.084-.359-.252-.462-.168-.112-.387-.196-.658-.252l-.91-.154-.994-.182a3.83 3.83 0 0 1-.896-.35 1.94 1.94 0 0 1-.658-.63c-.168-.261-.252-.607-.252-1.036a1.94 1.94 0 0 1 .406-1.232c.271-.355.649-.625 1.134-.812.495-.196 1.078-.294 1.75-.294a7.14 7.14 0 0 1 1.526.168c.514.112.938.271 1.274.476l-.672 1.33c-.354-.215-.714-.359-1.078-.434-.354-.084-.709-.126-1.064-.126-.532 0-.928.079-1.19.238-.252.159-.378.359-.378.602 0 .224.084.392.252.504s.388.201.658.266.57.121.896.168a7.14 7.14 0 0 1 .994.182c.327.084.626.201.896.35.28.14.504.341.672.602s.252.602.252 1.022c0 .467-.14.873-.42 1.218-.27.345-.658.616-1.162.812-.504.187-1.106.28-1.806.28z"/><path d="M11.22 112v-8.4h1.56v7.08h4.392V112H11.22zm6.944 0v-8.4h1.56v8.4h-1.56zm3.592 0v-8.4h1.284l3.672 6.132h-.672l3.612-6.132h1.284l.012 8.4h-1.476l-.012-6.084h.312L26.7 111.04h-.696l-3.12-5.124h.36V112h-1.488zm11.221 0v-8.4h1.56v8.4h-1.56zm5.296 0v-7.08h-2.784v-1.32h7.128v1.32h-2.784V112h-1.56zm6.715-4.908h4.176v1.284h-4.176v-1.284zm.12 3.6h4.74V112h-6.3v-8.4h6.132v1.308h-4.572v5.784zM51.346 112v-8.4h3.672c.912 0 1.712.176 2.4.528a3.96 3.96 0 0 1 1.608 1.464c.384.624.576 1.36.576 2.208 0 .84-.192 1.576-.576 2.208a3.96 3.96 0 0 1-1.608 1.464c-.688.352-1.488.528-2.4.528h-3.672zm1.56-1.32h2.04c.632 0 1.176-.12 1.632-.36a2.55 2.55 0 0 0 1.068-1.008c.256-.432.384-.936.384-1.512 0-.584-.128-1.088-.384-1.512a2.55 2.55 0 0 0-1.068-1.008c-.456-.24-1-.36-1.632-.36h-2.04v5.76zm7.705-1.392v-1.248h3.3v1.248h-3.3zM66.738 112v-7.08h-2.784v-1.32h7.128v1.32h-2.784V112h-1.56zm5.275 0v-8.4h1.56v8.4h-1.56zm3.592 0v-8.4h1.284l3.672 6.132h-.672l3.612-6.132h1.284l.012 8.4h-1.476l-.012-6.084h.312l-3.072 5.124h-.696l-3.12-5.124h.36V112h-1.488zm12.661-4.908h4.176v1.284h-4.176v-1.284zm.12 3.6h4.74V112h-6.3v-8.4h6.132v1.308h-4.572v5.784zm13.251 1.428c-.656 0-1.26-.108-1.812-.324s-1.032-.516-1.44-.9a4.16 4.16 0 0 1-.948-1.368c-.224-.528-.336-1.104-.336-1.728s.112-1.196.336-1.716a4 4 0 0 1 .948-1.368 4.33 4.33 0 0 1 1.44-.912c.552-.216 1.152-.324 1.8-.324.656 0 1.256.108 1.8.324a4.33 4.33 0 0 1 1.44.912 4 4 0 0 1 .948 1.368c.224.52.336 1.092.336 1.716s-.112 1.2-.336 1.728a4 4 0 0 1-.948 1.368c-.408.384-.888.684-1.44.9-.544.216-1.14.324-1.788.324zm-.012-1.368c.424 0 .816-.072 1.176-.216s.672-.348.936-.612a2.92 2.92 0 0 0 .612-.936c.152-.36.228-.756.228-1.188s-.076-.824-.228-1.176c-.144-.36-.348-.672-.612-.936a2.67 2.67 0 0 0-.936-.624c-.36-.144-.752-.216-1.176-.216s-.816.072-1.176.216a2.82 2.82 0 0 0-.936.624c-.264.264-.472.576-.624.936a3.08 3.08 0 0 0-.216 1.176c0 .424.072.816.216 1.176a3.05 3.05 0 0 0 .624.948 2.75 2.75 0 0 0 .936.612c.36.144.752.216 1.176.216zm5.938 1.248v-8.4h1.284l5.268 6.468h-.636V103.6h1.548v8.4h-1.284l-5.268-6.468h.636V112h-1.548zm9.475 0v-8.4h1.56v7.08h4.392V112h-5.952zm8.129 0v-3.324l.348.96-3.648-6.036h1.668l2.928 4.86h-.936l2.952-4.86h1.536l-3.648 6.036.36-.96V112h-1.56z"/></g><rect x="206" y="68" width="84" height="47" rx="4" fill="#ff7800"/><path d="M229.844 88.668c-.756 0-1.46-.121-2.114-.364a5.06 5.06 0 0 1-1.68-1.064 5 5 0 0 1-1.12-1.61c-.261-.616-.392-1.293-.392-2.03s.131-1.414.392-2.03a5 5 0 0 1 1.12-1.61c.486-.457 1.05-.807 1.694-1.05.644-.252 1.349-.378 2.114-.378.85 0 1.615.149 2.296.448.691.289 1.27.719 1.736 1.288l-1.456 1.344c-.336-.383-.709-.667-1.12-.854-.41-.196-.858-.294-1.344-.294a3.44 3.44 0 0 0-1.26.224 2.86 2.86 0 0 0-.994.644 3.03 3.03 0 0 0-.658.994c-.149.383-.224.807-.224 1.274s.075.891.224 1.274a3.03 3.03 0 0 0 .658.994 2.86 2.86 0 0 0 .994.644 3.44 3.44 0 0 0 1.26.224 3.2 3.2 0 0 0 1.344-.28c.411-.196.784-.49 1.12-.882l1.456 1.344a4.53 4.53 0 0 1-1.736 1.302c-.681.299-1.451.448-2.31.448zm5.718-.168v-9.8h2.268v7.952h4.914V88.5h-7.182zm7.356 0l4.368-9.8h2.24l4.382 9.8h-2.38l-3.584-8.652h.896l-3.598 8.652h-2.324zm2.184-2.1l.602-1.722h5.04l.616 1.722h-6.258zm9.963 2.1v-9.8h2.268v9.8h-2.268zm4.733 0v-9.8h1.876l4.172 6.916h-.994l4.102-6.916h1.862l.028 9.8h-2.128l-.014-6.538h.392l-3.276 5.502h-1.022l-3.346-5.502h.476V88.5h-2.128zm-30.909 17v-9.8h4.452c1.064 0 2.002.205 2.814.616.812.401 1.446.966 1.904 1.694s.686 1.591.686 2.59c0 .989-.229 1.853-.686 2.59-.458.728-1.092 1.297-1.904 1.708-.812.401-1.75.602-2.814.602h-4.452zm2.268-1.862h2.072c.653 0 1.218-.121 1.694-.364.485-.252.858-.607 1.12-1.064.27-.457.406-.994.406-1.61 0-.625-.136-1.162-.406-1.61a2.6 2.6 0 0 0-1.12-1.05c-.476-.252-1.041-.378-1.694-.378h-2.072v6.076zm11.524-3.99h4.718v1.764h-4.718v-1.764zm.168 4.032h5.334v1.82h-7.588v-9.8h7.406v1.82h-5.152v6.16zm5.991 1.82l4.368-9.8h2.24l4.382 9.8h-2.38l-3.584-8.652h.896l-3.598 8.652h-2.324zm2.184-2.1l.602-1.722h5.04l.616 1.722h-6.258zm9.962 2.1v-9.8h2.268v7.952h4.914v1.848h-7.182zm-47.217-45.494h-2.568l-3.448-4.158v4.158H206V54.29h2.6l3.421 4.19v-4.19h1.748v5.716zm7.214-4.325h-4.526v.865h4.262v1.2h-4.262v.879h4.595v1.381h-6.349V54.29h6.28v1.39zm4.208 4.325h-2.008l-1.836-5.716h1.749l1.184 4.063 1.471-4.063h1.612l1.389 4.063 1.266-4.063h1.749l-1.922 5.716h-1.976l-1.33-3.941-1.348 3.941zm6.749-1.902h1.735v.109a.5.5 0 0 0 .019.246c.027.079.074.15.136.207a1.27 1.27 0 0 0 .665.113h2.204c.16.013.319-.025.456-.109a.45.45 0 0 0 .111-.165c.024-.062.035-.13.03-.197a.42.42 0 0 0-.033-.204c-.028-.064-.071-.12-.127-.163a1.51 1.51 0 0 0-.687-.15l-2.733-.063c-.499.041-.997-.097-1.402-.389a1.85 1.85 0 0 1-.365-1.314 2.71 2.71 0 0 1 .1-.811c.056-.199.161-.382.306-.53.184-.168.411-.283.655-.335.436-.081.878-.115 1.321-.1h2.678c.497-.044.994.075 1.416.34a1.45 1.45 0 0 1 .456 1.173v.113.199h-1.69a.57.57 0 0 0-.146-.426.59.59 0 0 0-.205-.123.57.57 0 0 0-.236-.031h-2.022c-.228-.02-.458.014-.67.1a.37.37 0 0 0-.131.152c-.029.062-.04.13-.033.197a.41.41 0 0 0 .031.195c.026.062.067.116.119.158.164.093.349.142.538.14l2.887.045a1.99 1.99 0 0 1 1.394.453 2.02 2.02 0 0 1 .4 1.413c.013.309-.038.617-.15.906a1.31 1.31 0 0 1-.496.557 1.71 1.71 0 0 1-.629.208c-.382.048-.767.07-1.152.063h-2.364c-.96 0-1.603-.109-1.926-.322-.176-.142-.314-.326-.399-.535a1.32 1.32 0 0 1-.088-.66v-.453m9.755 1.895h-1.754V54.29h1.754v2.097h3.593V54.29h1.767v5.716h-1.767v-2.237h-3.593v2.237zm9.053.068a8.72 8.72 0 0 1-1.475-.091 1.83 1.83 0 0 1-.761-.308 1.41 1.41 0 0 1-.455-.643 3.17 3.17 0 0 1-.146-1.055v-1.576c-.012-.384.037-.768.146-1.137a1.39 1.39 0 0 1 .455-.661c.229-.16.493-.266.77-.308a8.27 8.27 0 0 1 1.457-.091h2.068a8.31 8.31 0 0 1 1.461.091 1.79 1.79 0 0 1 .77.308 1.36 1.36 0 0 1 .456.657c.11.347.16.71.15 1.074v1.594c.011.362-.039.724-.15 1.069a1.42 1.42 0 0 1-.456.661c-.227.161-.489.266-.765.308a8.77 8.77 0 0 1-1.466.091l-2.059.018zm.456-1.427h1.115a2.18 2.18 0 0 0 1.234-.236c.115-.11.202-.245.255-.394s.07-.309.051-.466v-.811c.019-.157.002-.317-.051-.466s-.14-.284-.255-.395c-.38-.194-.809-.274-1.234-.231h-1.125a2.22 2.22 0 0 0-1.243.231 1.1 1.1 0 0 0-.296.906v.797c-.018.156.001.314.055.461a1.01 1.01 0 0 0 .259.386 2.25 2.25 0 0 0 1.235.231m5.255-.556h1.731v.109c-.014.083-.007.168.021.247s.076.15.138.206a1.27 1.27 0 0 0 .665.113h2.209a.75.75 0 0 0 .455-.109.44.44 0 0 0 .142-.362c.006-.07-.005-.141-.034-.205a.41.41 0 0 0-.13-.162 1.48 1.48 0 0 0-.688-.149l-2.755-.063a2.09 2.09 0 0 1-1.398-.39 1.85 1.85 0 0 1-.365-1.313 2.92 2.92 0 0 1 .096-.811 1.23 1.23 0 0 1 .31-.53c.184-.168.411-.283.655-.335a6.1 6.1 0 0 1 1.321-.1h2.678a2.28 2.28 0 0 1 1.434.358 1.44 1.44 0 0 1 .363.535c.079.204.111.421.093.638a1.07 1.07 0 0 1 0 .113v.199h-1.722a.55.55 0 0 0-.027-.228.57.57 0 0 0-.118-.198.59.59 0 0 0-.433-.14h-2.022a1.4 1.4 0 0 0-.665.1.37.37 0 0 0-.164.349c-.006.066.005.133.03.194a.41.41 0 0 0 .116.159 1.09 1.09 0 0 0 .551.072l2.887.045a1.97 1.97 0 0 1 1.389.453c.311.403.455.908.406 1.413a2.26 2.26 0 0 1-.151.906c-.109.23-.283.423-.501.557a1.68 1.68 0 0 1-.628.208 8.01 8.01 0 0 1-1.148.063h-2.341c-.96 0-1.598-.109-1.926-.322a1.32 1.32 0 0 1-.396-.536 1.33 1.33 0 0 1-.087-.66v-.453m11.732 1.931h-1.754V55.69h-2.4v-1.4h6.558v1.4h-2.404v4.316zm4.804-5.716h-1.753v5.716h1.753V54.29zm8.826 5.716h-2.573l-3.443-4.158v4.158h-1.754V54.29h2.596l3.425 4.19v-4.19h1.749v5.716zm6.376-3.655a.58.58 0 0 0-.045-.302c-.042-.095-.108-.177-.192-.237a2.52 2.52 0 0 0-1.079-.145h-1.025a2.02 2.02 0 0 0-1.152.213 1.2 1.2 0 0 0-.218.428c-.043.156-.054.318-.033.478v.797a1.06 1.06 0 0 0 .048.454c.049.146.129.28.235.393a1.92 1.92 0 0 0 1.129.231h1.016a2.69 2.69 0 0 0 1.038-.136c.087-.039.161-.103.212-.184s.077-.174.075-.269a1.32 1.32 0 0 0 0-.154h0-2.068v-1.155h3.894v1.875a1.2 1.2 0 0 1-.134.66 1.21 1.21 0 0 1-.467.486c-.66.275-1.377.392-2.091.34h-1.971a6.68 6.68 0 0 1-1.326-.095 1.88 1.88 0 0 1-.728-.326 1.63 1.63 0 0 1-.506-.67 2.8 2.8 0 0 1-.155-1.006v-1.626c0-.82.192-1.39.583-1.712s1.098-.485 2.127-.485h1.958c.469-.011.938.017 1.403.082.254.039.496.137.706.285.186.142.325.336.401.557.097.292.142.598.132.906v.195.127l-1.767-.005zm-19.867-26.33c-.003 5.308-2.113 10.397-5.866 14.149a20.01 20.01 0 0 1-14.148 5.86c-5.306 0-10.395-2.108-14.149-5.86a20.02 20.02 0 0 1-5.866-14.149c-.003-5.308 2.109-10.402 5.862-14.157a20.01 20.01 0 0 1 28.305 0 20.02 20.02 0 0 1 5.862 14.157" fill="#fff"/><path d="M252.869 26.235h4.312l-8.879-8.923-8.878 8.923h4.312v7.222h-4.312l8.878 8.923 8.879-8.923h-4.312v-7.222z" fill="#1c3f73"/><defs><linearGradient id="A" x1="150" y1="0" x2="150" y2="125" gradientUnits="userSpaceOnUse"><stop stop-color="#26315a"/><stop offset="1" stop-color="#1a223f"/></linearGradient></defs></svg>